<svg width="33" height="37" viewBox="0 0 33 37" fill="none" xmlns="http://www.w3.org/2000/svg">
<path d="M31.7333 29.321C31.0571 29.321 30.4086 29.0524 29.9304 28.5743C29.4523 28.0961 29.1836 27.4476 29.1836 26.7714V15.2979C29.1837 12.1376 28.0098 9.08984 25.8898 6.74603C23.7698 4.40222 20.8547 2.92943 17.7102 2.6134V0H15.1605V2.6134C12.016 2.92943 9.10095 4.40222 6.98092 6.74603C4.86089 9.08984 3.68703 12.1376 3.68707 15.2979V26.7714C3.68707 27.4476 3.41845 28.0961 2.94029 28.5743C2.46214 29.0524 1.81362 29.321 1.13741 29.321H0.5V31.8707H12.8403C12.6307 32.4484 12.5633 33.068 12.6439 33.6773C12.7245 34.2865 12.9508 34.8673 13.3035 35.3706C13.6562 35.8738 14.125 36.2846 14.6702 36.5683C15.2153 36.8519 15.8208 37 16.4353 37C17.0499 37 17.6554 36.8519 18.2005 36.5683C18.7457 36.2846 19.2145 35.8738 19.5672 35.3706C19.9199 34.8673 20.1462 34.2865 20.2268 33.6773C20.3074 33.068 20.24 32.4484 20.0304 31.8707H32.3707V29.321H31.7333ZM6.23673 26.7714V15.2979C6.23673 12.5931 7.31122 9.99903 9.22383 8.08642C11.1364 6.17381 13.7305 5.09931 16.4353 5.09931C19.1402 5.09931 21.7343 6.17381 23.6469 8.08642C25.5595 9.99903 26.634 12.5931 26.634 15.2979V26.7714C26.6377 27.6701 26.8844 28.5511 27.3479 29.321H5.52282C5.98629 28.5511 6.23296 27.6701 6.23673 26.7714V26.7714ZM17.7102 33.1455C17.7102 33.3977 17.6354 33.6441 17.4953 33.8538C17.3553 34.0634 17.1561 34.2268 16.9232 34.3233C16.6903 34.4198 16.4339 34.445 16.1866 34.3959C15.9394 34.3467 15.7122 34.2253 15.5339 34.047C15.3556 33.8687 15.2342 33.6415 15.185 33.3942C15.1358 33.1469 15.1611 32.8906 15.2576 32.6577C15.3541 32.4247 15.5174 32.2256 15.7271 32.0855C15.9367 31.9455 16.1832 31.8707 16.4353 31.8707C16.7735 31.8707 17.0977 32.005 17.3368 32.2441C17.5759 32.4832 17.7102 32.8074 17.7102 33.1455Z" fill="#DBE3ED"/>
</svg>
