<svg width="27" height="30" viewBox="0 0 27 30" fill="none" xmlns="http://www.w3.org/2000/svg">
<path d="M22.5 10.5H19.5C18.6 10.5 18 11.1 18 12C18 12.9 18.6 13.5 19.5 13.5H22.5C23.4 13.5 24 14.1 24 15V25.5C24 26.4 23.4 27 22.5 27H4.5C3.6 27 3 26.4 3 25.5V15C3 14.1 3.6 13.5 4.5 13.5H7.5C8.4 13.5 9 12.9 9 12C9 11.1 8.4 10.5 7.5 10.5H4.5C1.95 10.5 0 12.45 0 15V25.5C0 28.05 1.95 30 4.5 30H22.5C25.05 30 27 28.05 27 25.5V15C27 12.45 25.05 10.5 22.5 10.5ZM10.05 7.05L12 5.1V22.5C12 23.4 12.6 24 13.5 24C14.4 24 15 23.4 15 22.5V5.1L16.95 7.05C17.25 7.35 17.55 7.5 18 7.5C18.45 7.5 18.75 7.35 19.05 7.05C19.65 6.45 19.65 5.55 19.05 4.95L14.55 0.45C13.95 -0.15 13.05 -0.15 12.45 0.45L7.95 4.95C7.35 5.55 7.35 6.45 7.95 7.05C8.55 7.65 9.45 7.65 10.05 7.05Z" fill="#852B3A"/>
</svg>
