<svg width="370" height="321" viewBox="0 0 370 321" fill="none" xmlns="http://www.w3.org/2000/svg">
<path d="M53.0518 293.25C123.787 329.415 238.472 329.416 309.206 293.251C379.942 257.085 379.942 198.451 309.206 162.286C238.471 126.12 123.786 126.12 53.0512 162.285C-17.6838 198.45 -17.6838 257.085 53.0518 293.25Z" fill="#852B3A"/>
<path d="M284.388 235.475C288.265 237.712 295.883 236.943 301.405 233.754L333.231 215.27C338.753 212.082 340.08 207.679 336.195 205.437C332.31 203.194 324.686 203.962 319.166 207.153L287.364 225.645C281.844 228.836 280.511 233.237 284.388 235.475Z" fill="#380F16"/>
<path d="M92.785 252.52L60.4127 233.83L92.785 215.14V252.52Z" fill="#852B3A"/>
<path d="M184.281 263.703L132.105 233.559L184.294 203.474L184.281 263.703Z" fill="#852B3A"/>
<path d="M48.9929 208.821C49.0835 201.249 43.7953 185.499 36.0565 175.573C28.317 165.647 16.0503 158.309 7.23864 161.206C-0.968078 163.903 -0.211913 174.636 9.6192 181.861C19.4504 189.085 34.2487 198.19 38.4616 210.524L47.4304 225.705L48.9929 208.821Z" fill="#5FC8AB"/>
<path d="M44.2295 220.287L38.4616 210.524C34.2487 198.19 19.4504 189.085 9.61919 181.861C4.27155 177.931 1.60923 172.963 1.61359 168.815C1.61733 165.337 3.49576 162.436 7.23863 161.206C8.5598 160.772 9.95725 160.567 11.4074 160.567C19.6259 160.567 29.4779 167.135 36.0565 175.573C39.2751 179.701 42.0697 184.836 44.2295 189.972V220.287Z" fill="#215971"/>
<path d="M49.4272 219.188C49.1859 219.166 48.9795 218.986 48.9341 218.737C44.1745 192.829 23.5173 171.568 11.0578 166.776C10.7729 166.666 10.6304 166.346 10.7399 166.061C10.8486 165.777 11.1626 165.628 11.4546 165.743C24.1514 170.626 45.1906 192.236 50.0221 218.537C50.0772 218.837 49.8786 219.125 49.5785 219.181L49.4272 219.188Z" fill="white"/>
<path d="M45.3733 235.687C44.2081 231.417 39.0936 224.33 30.7548 218.426C21.5298 211.896 9.79386 208.804 7.14055 203.776C3.95275 197.735 9.07907 192.126 18.6201 193.426C28.1605 194.726 44.8033 207.964 47.253 227.624L45.3733 235.687Z" fill="#215971"/>
<path d="M47.276 231.243C47.0662 231.223 46.8776 231.084 46.8034 230.871C39.1434 208.633 22.3421 200.657 14.5295 199.547C14.2269 199.505 14.0164 199.225 14.0594 198.922C14.1017 198.618 14.3701 198.408 14.6845 198.451C23.3243 199.679 40.031 207.812 47.8504 230.511C47.9494 230.8 47.7953 231.115 47.507 231.214C47.4304 231.241 47.3517 231.25 47.276 231.243Z" fill="white"/>
<path d="M331.562 187.269C331.562 187.269 332.625 171.304 342.032 159.454C351.44 147.604 350.861 142.723 344.375 140.331C337.889 137.939 322.822 152.221 326.174 171.346C329.527 190.472 331.562 187.269 331.562 187.269Z" fill="#5FC8AB"/>
<path d="M331.189 187.47C330.458 187.47 328.685 185.672 326.174 171.346C325.847 169.478 325.694 167.656 325.694 165.89C325.685 150.92 336.512 140.069 342.813 140.069C343.372 140.069 343.898 140.155 344.375 140.332C347.435 141.459 349.18 143.142 349.182 145.847C349.185 148.878 347.003 153.193 342.032 159.454C332.625 171.304 331.562 187.269 331.562 187.269C331.562 187.269 331.434 187.47 331.189 187.47Z" fill="#215971"/>
<path d="M328.689 178.15C328.493 178.15 328.331 177.999 328.318 177.802C327.22 160.223 339.636 145.798 344.283 142.533C344.448 142.416 344.681 142.456 344.798 142.624C344.917 142.792 344.876 143.022 344.708 143.141C340.152 146.341 327.979 160.491 329.058 177.756C329.072 177.959 328.916 178.136 328.712 178.149L328.689 178.15Z" fill="white"/>
<path d="M329.005 200.451C329.005 200.451 334.675 202.415 341.959 203.569C349.244 204.723 352.459 201.238 352.459 201.238C352.459 201.238 349.591 194.406 345.453 192.489C345.453 192.489 352.468 193.918 358.098 197.675C358.098 197.675 362.546 197.743 364.316 190.953C364.316 190.953 361.681 186.867 352.838 184.66C352.838 184.66 358.218 183.306 365.972 185.283C366.553 185.515 369.03 176.736 369.78 172.686C370.529 168.637 368.902 168.679 365.744 167.836C362.587 166.993 352.13 164.644 350.154 166.381C348.176 168.117 347.173 174.055 347.173 174.055C347.173 174.055 345.871 170.552 346.877 166.53C346.877 166.53 344.035 165.419 339.626 166.702C336.02 167.751 335.844 170.205 336.007 172.979C336.126 175.006 336.615 177.167 337.568 180.02C337.568 180.02 334.757 176.417 334.67 168.605C334.67 168.605 327.289 172.271 326.028 179.596C325.348 183.556 324.382 195.189 329.005 200.451Z" fill="#215971"/>
<path d="M330.397 199.027C330.549 199.027 330.695 198.941 330.766 198.795C336.645 186.581 358.501 172.389 366.33 170.867C366.552 170.823 366.698 170.608 366.655 170.386C366.611 170.163 366.394 170.021 366.173 170.062C358.216 171.609 336 186.03 330.028 198.44C329.929 198.644 330.015 198.888 330.219 198.985L330.397 199.027Z" fill="white"/>
<path d="M46.1398 241.334C45.2357 241.334 44.6959 240.587 44.6959 239.337V105.282L208.863 10.5003L208.864 144.015C208.864 146.064 207.42 148.564 205.646 149.589L47.4476 240.925C46.9844 241.193 46.5317 241.334 46.1398 241.334Z" fill="#FAF9F9"/>
<path d="M209.329 9.69303L44.2295 105.013V239.337C44.2295 240.897 45.0072 241.8 46.1391 241.8C46.6036 241.8 47.1266 241.648 47.6804 241.329L205.879 149.992C207.785 148.892 209.33 146.215 209.33 144.015L209.329 9.69303ZM208.397 11.3068L208.398 144.015C208.398 145.883 207.031 148.251 205.413 149.185L47.2144 240.521C46.8222 240.748 46.4501 240.867 46.1391 240.867C45.2572 240.867 45.1623 239.796 45.1623 239.337V105.552L208.397 11.3068Z" fill="#D9DAD7"/>
<path d="M44.2295 105.013V127.442L209.328 32.1232L209.329 9.69303L44.2295 105.013Z" fill="#215971"/>
<path d="M57.1778 106.21L57.1781 109.427C57.1781 110.084 57.6445 110.353 58.2135 110.024L108.973 80.718V75.1107L58.2129 104.417C57.6436 104.746 57.1778 105.553 57.1778 106.21Z" fill="#FAF9F9"/>
<path d="M114.413 71.9699C114.985 71.64 115.449 71.9077 115.449 72.5676V75.7841C115.449 76.4448 114.985 77.2473 114.413 77.5772L108.973 80.718V75.1107L114.413 71.9699Z" fill="#3C515C"/>
<path d="M44.2299 97.7831C44.2299 95.5827 45.7746 92.9066 47.6807 91.806L205.878 0.471497C207.783 -0.629089 209.329 0.262695 209.329 2.46387V9.69302L44.2299 105.013V97.7831Z" fill="#3C515C"/>
<path d="M190.946 16.5066L190.946 16.5066C190.512 16.7578 190.134 16.773 189.869 16.6199C189.604 16.4667 189.428 16.1315 189.428 15.6295C189.428 15.128 189.604 14.5676 189.893 14.0677C190.182 13.5678 190.579 13.1346 191.013 12.8836L190.946 16.5066ZM190.946 16.5066C191.381 16.2556 191.778 15.8226 192.067 15.3228M190.946 16.5066L192.067 15.3228M192.067 15.3228C192.356 14.823 192.532 14.2626 192.532 13.7607M192.067 15.3228L192.532 13.7607M192.532 13.7607C192.532 13.2583 192.356 12.9231 192.091 12.77M192.532 13.7607L192.091 12.77M192.091 12.77C191.826 12.617 191.448 12.6324 191.013 12.8836L192.091 12.77Z" fill="#852B3A" stroke="#852B3A" stroke-width="0.133333"/>
<path d="M196.141 9.91891L196.141 9.91892C195.707 10.1699 195.31 10.6031 195.021 11.103C194.733 11.6029 194.556 12.1633 194.556 12.6649C194.556 13.1673 194.732 13.5025 194.997 13.6555C195.262 13.8085 195.64 13.7931 196.075 13.5419L196.075 13.5419C196.509 13.2914 196.906 12.8582 197.195 12.3582C197.483 11.8582 197.66 11.2976 197.66 10.796C197.66 10.2936 197.484 9.9584 197.219 9.80536C196.954 9.65231 196.576 9.66772 196.141 9.91891Z" fill="#852B3A" stroke="#852B3A" stroke-width="0.133333"/>
<path d="M201.269 6.95426L201.269 6.95428C200.834 7.20486 200.437 7.63802 200.149 8.13803C199.86 8.63804 199.684 9.19862 199.684 9.7002C199.684 10.2022 199.859 10.5372 200.124 10.6903C200.389 10.8433 200.767 10.8281 201.202 10.5773C201.637 10.3263 202.034 9.89311 202.322 9.39322C202.611 8.89331 202.788 8.33293 202.788 7.83135C202.788 7.32893 202.612 6.99373 202.347 6.8407C202.082 6.68767 201.704 6.70306 201.269 6.95426Z" fill="#852B3A" stroke="#852B3A" stroke-width="0.133333"/>
<path d="M157.566 46.785L157.566 46.785C156.601 47.342 155.724 48.3004 155.088 49.402C154.452 50.5036 154.061 51.7422 154.061 52.8558C154.061 53.646 154.258 54.2616 154.59 54.6782C154.921 55.0933 155.391 55.3163 155.952 55.3163C156.413 55.3163 156.938 55.1655 157.499 54.8415L157.499 54.8415C158.464 54.2849 159.341 53.3265 159.977 52.2248C160.613 51.1231 161.004 49.8843 161.004 48.7707C161.004 47.9805 160.807 47.3649 160.475 46.9483C160.144 46.5332 159.674 46.3102 159.113 46.3102C158.651 46.3102 158.126 46.461 157.566 46.785Z" fill="#852B3A" stroke="#852B3A" stroke-width="0.133333"/>
<path d="M141.313 64.1865L141.313 64.1865C142.278 63.6299 143.155 62.6717 143.791 61.5701C144.427 60.4685 144.818 59.2297 144.818 58.1157C144.818 57.3255 144.621 56.7101 144.289 56.2937C143.958 55.8788 143.488 55.656 142.927 55.656C142.465 55.656 141.94 55.8061 141.38 56.13L141.38 56.1301C140.415 56.6867 139.538 57.645 138.902 58.7467C138.267 59.8484 137.875 61.0872 137.875 62.2009C137.875 62.991 138.072 63.6067 138.404 64.0233C138.735 64.4383 139.205 64.6613 139.766 64.6613C140.227 64.6613 140.752 64.5105 141.313 64.1865Z" fill="#852B3A" stroke="#852B3A" stroke-width="0.133333"/>
<mask id="path-26-inside-1_28_229" fill="white">
<path d="M172.138 46.0371C170.978 46.0371 170.18 45.1119 170.18 43.5108C170.18 41.2538 171.764 38.51 173.718 37.3815C174.287 37.0539 174.823 36.8985 175.298 36.8985C176.459 36.8985 177.257 37.8246 177.257 39.4256C177.257 41.6826 175.673 44.4265 173.718 45.5542C173.151 45.8817 172.614 46.0371 172.138 46.0371Z"/>
</mask>
<path d="M172.138 46.0371C170.978 46.0371 170.18 45.1119 170.18 43.5108C170.18 41.2538 171.764 38.51 173.718 37.3815C174.287 37.0539 174.823 36.8985 175.298 36.8985C176.459 36.8985 177.257 37.8246 177.257 39.4256C177.257 41.6826 175.673 44.4265 173.718 45.5542C173.151 45.8817 172.614 46.0371 172.138 46.0371Z" fill="#852B3A"/>
<path d="M173.718 37.3815L173.652 37.266L173.652 37.266L173.718 37.3815ZM173.718 45.5542L173.652 45.4387L173.652 45.4387L173.718 45.5542ZM172.138 46.1705C171.519 46.1705 170.991 45.9221 170.62 45.4576C170.251 44.996 170.047 44.3321 170.047 43.5108H170.313C170.313 44.2906 170.508 44.8899 170.828 45.2912C171.146 45.6895 171.597 45.9038 172.138 45.9038V46.1705ZM170.047 43.5108C170.047 42.3534 170.452 41.0803 171.101 39.9563C171.75 38.8322 172.65 37.8447 173.652 37.266L173.785 37.4969C172.833 38.0467 171.964 38.9954 171.332 40.0896C170.7 41.1839 170.313 42.4112 170.313 43.5108H170.047ZM173.652 37.266C174.235 36.9298 174.794 36.7652 175.298 36.7652V37.0319C174.852 37.0319 174.338 37.178 173.785 37.497L173.652 37.266ZM175.298 36.7652C175.917 36.7652 176.446 37.0137 176.817 37.4785C177.186 37.9403 177.39 38.6044 177.39 39.4256H177.124C177.124 38.6458 176.929 38.0464 176.609 37.6449C176.291 37.2463 175.84 37.0319 175.298 37.0319V36.7652ZM177.39 39.4256C177.39 40.583 176.985 41.8561 176.336 42.9801C175.687 44.104 174.787 45.0914 173.785 45.6697L173.652 45.4387C174.604 44.8893 175.473 43.9409 176.105 42.8467C176.737 41.7526 177.124 40.5252 177.124 39.4256H177.39ZM173.785 45.6697C173.203 46.0059 172.643 46.1705 172.138 46.1705V45.9038C172.585 45.9038 173.099 45.7576 173.652 45.4387L173.785 45.6697Z" fill="#852B3A" mask="url(#path-26-inside-1_28_229)"/>
<path d="M189.939 28.0766L189.939 28.0767C188.974 28.6333 188.097 29.5916 187.461 30.6933C186.825 31.7951 186.434 33.0338 186.434 34.1475C186.434 34.9377 186.63 35.5533 186.963 35.9699C187.294 36.3849 187.764 36.6079 188.325 36.6079C188.786 36.6079 189.311 36.4571 189.872 36.1331L189.872 36.1331C190.837 35.5765 191.713 34.6181 192.349 33.5164C192.985 32.4147 193.376 31.1759 193.376 30.0623C193.376 29.2721 193.18 28.6565 192.847 28.2399C192.516 27.8248 192.047 27.6018 191.486 27.6018C191.024 27.6018 190.499 27.7527 189.939 28.0766Z" fill="#852B3A" stroke="#852B3A" stroke-width="0.133333"/>
<path d="M60.629 129.189L99.0482 107.008C100.955 105.907 102.499 106.799 102.499 109V145.887C102.499 148.087 100.955 150.764 99.0482 151.864L60.6299 174.046C58.7244 175.146 57.1791 174.254 57.1791 172.054L57.1782 135.166C57.1782 132.965 58.7232 130.29 60.629 129.189Z" fill="#D9DAD7"/>
<path d="M115.665 97.4157L196.166 50.9352C198.072 49.8354 199.617 50.7272 199.617 52.9276V89.8152C199.617 92.0156 198.072 94.6917 196.166 95.7923L115.666 142.272C113.76 143.373 112.215 142.481 112.215 140.28L112.215 103.393C112.215 101.192 113.759 98.5155 115.665 97.4157Z" fill="#D9DAD7"/>
<path d="M60.6296 185.26L121.709 149.995C123.615 148.895 125.16 149.677 125.16 151.741C125.16 153.805 123.616 156.37 121.71 157.471L60.6296 192.736C58.7235 193.836 57.1788 193.055 57.1788 190.99C57.1788 188.926 58.7235 186.36 60.6296 185.26Z" fill="#D9DAD7"/>
<path d="M60.6296 198.341L121.709 163.076C123.615 161.976 125.16 162.758 125.16 164.822C125.16 166.886 123.616 169.452 121.71 170.553L60.6296 205.817C58.7235 206.917 57.1788 206.136 57.1788 204.072C57.1788 202.007 58.7235 199.441 60.6296 198.341Z" fill="#D9DAD7"/>
<path d="M60.6296 211.423L121.709 176.158C123.615 175.057 125.16 175.839 125.16 177.904C125.16 179.968 123.616 182.533 121.71 183.634L60.6296 218.899C58.7235 219.999 57.1788 219.217 57.1788 217.153C57.1788 215.089 58.7235 212.523 60.6296 211.423Z" fill="#D9DAD7"/>
<path d="M89.551 167.065C89.551 165.745 90.4778 164.139 91.6214 163.479L197.545 102.324C198.688 101.664 200.541 101.663 201.686 102.324L204.019 103.671C205.163 104.332 206.09 105.937 206.09 107.257V188.45C206.09 189.765 205.158 191.379 204.02 192.036L98.0967 253.191C96.957 253.848 95.0938 253.848 93.9549 253.191L91.6214 251.843C90.4826 251.186 89.551 249.572 89.551 248.257V167.065Z" fill="#215971"/>
<path d="M90.1559 165.027L90.1551 165.026C90.4276 164.552 90.7791 164.12 91.1752 163.792C90.7815 164.119 90.4308 164.551 90.1559 165.027ZM204.533 104.042C204.369 103.899 204.196 103.774 204.019 103.671L203.204 103.201L204.023 103.669C204.198 103.773 204.37 103.899 204.533 104.042ZM198.649 101.923C198.961 101.86 199.288 101.828 199.615 101.828C199.882 101.828 200.149 101.849 200.408 101.891C200.149 101.85 199.882 101.828 199.615 101.828C199.289 101.828 198.961 101.86 198.649 101.923Z" fill="#FCFCFC"/>
<path d="M96.0318 168.414L90.1559 165.027C90.4308 164.551 90.7815 164.119 91.1752 163.792C91.3194 163.673 91.47 163.567 91.6238 163.478L197.548 102.327C197.868 102.14 198.246 102.005 198.649 101.923C198.961 101.86 199.289 101.828 199.615 101.828C199.882 101.828 200.149 101.85 200.408 101.891C200.875 101.968 201.316 102.113 201.681 102.327L203.204 103.201L204.019 103.671C204.196 103.774 204.369 103.899 204.533 104.042C204.898 104.362 205.225 104.771 205.483 105.217L96.0318 168.414Z" fill="#215971"/>
<path d="M90.7074 251.068C90.0204 250.284 89.5478 249.197 89.5478 248.255V217.157L89.551 217.154V248.257C89.551 249.194 90.0236 250.282 90.7074 251.068Z" fill="#CACBC9"/>
<path d="M89.5478 216.08V202.203L89.551 202.2V216.078L89.5478 216.08Z" fill="#DADBD8"/>
<path d="M89.5478 217.157V216.08L89.551 216.078V217.154L89.5478 217.157Z" fill="#BFC0BE"/>
<path d="M89.5478 194.727V189.121L89.551 189.119V194.724L89.5478 194.727ZM89.5478 181.645V176.04L89.551 176.038V181.643L89.5478 181.645ZM89.5478 168.563V167.063C89.5478 166.407 89.7829 165.672 90.1551 165.026L90.1559 165.027C89.7821 165.675 89.551 166.405 89.551 167.065V168.562L89.5478 168.563Z" fill="#DADBD8"/>
<path d="M89.5478 176.04V168.563L89.551 168.562V176.038L89.5478 176.04Z" fill="#BFC0BE"/>
<path d="M89.5478 189.121V181.645L89.551 181.643V189.119L89.5478 189.121Z" fill="#BFC0BE"/>
<path d="M89.5478 202.203V194.727L89.551 194.724V202.2L89.5478 202.203Z" fill="#BFC0BE"/>
<path d="M96.0142 253.681C95.7991 253.681 95.5855 253.668 95.3759 253.641C95.0722 253.602 94.7877 253.533 94.5239 253.446C94.3175 253.377 94.1318 253.289 93.9557 253.191L91.6238 251.839C91.2947 251.651 90.9839 251.384 90.7073 251.068C90.0236 250.282 89.551 249.194 89.551 248.257V217.154V216.078V202.2V194.724V189.119V181.643V176.038V168.562V167.065C89.551 166.405 89.7821 165.674 90.1558 165.027L96.0318 168.414L97.1092 169.042C96.4629 169.306 96.0318 169.953 96.0318 170.804V251.995C96.0318 252.682 96.2764 253.152 96.6685 253.357C96.8152 253.431 96.9793 253.471 97.1586 253.471C97.3141 253.471 97.4806 253.44 97.6575 253.377C97.5794 253.416 97.5013 253.446 97.4129 253.475C97.2854 253.514 97.1483 253.553 97.0112 253.583C96.6884 253.648 96.3505 253.681 96.0142 253.681Z" fill="#215971"/>
<path d="M205.6 105.43C205.598 105.427 205.596 105.423 205.595 105.42L205.874 104.992L205.6 105.43Z" fill="#BDBFBD"/>
<path d="M96.6686 253.357C96.2765 253.152 96.0318 252.682 96.0318 251.995V250.644L138.022 186.948L96.0318 168.414L145.086 186.741C145.998 187.081 146.94 187.244 147.87 187.244C150.504 187.244 153.042 185.935 154.547 183.627L162.425 171.558L205.595 105.419C205.597 105.423 205.598 105.427 205.6 105.43L163.995 172.012L206.089 188.485C206.079 189.151 205.835 189.895 205.443 190.551L163.878 172.199L154.724 186.849C153.223 189.243 150.634 190.598 147.958 190.598C146.878 190.598 145.785 190.377 144.743 189.915L138.225 187.038L96.6686 253.357Z" fill="#201F1F"/>
<path d="M183.431 75.2023V261.612C183.431 263.813 184.976 264.705 186.883 263.605L270.624 215.257C272.529 214.156 274.075 211.48 274.075 209.28V22.8698C274.075 20.6694 272.529 19.7776 270.624 20.8774L186.883 69.2252C184.976 70.3258 183.431 73.002 183.431 75.2023Z" fill="#FAF9F9"/>
<path d="M183.431 75.2024H182.965V261.612C182.966 262.468 183.177 263.192 183.597 263.72C184.014 264.25 184.651 264.547 185.341 264.542C185.907 264.541 186.507 264.359 187.115 264.008L270.857 215.66C271.904 215.054 272.808 214.053 273.468 212.914C274.125 211.773 274.539 210.489 274.541 209.28V22.8698C274.541 22.0147 274.329 21.2903 273.909 20.7619C273.492 20.2319 272.855 19.9355 272.165 19.9402C271.599 19.941 270.999 20.1235 270.391 20.4742L186.649 68.822C185.603 69.4285 184.698 70.4286 184.038 71.5683C183.381 72.7103 182.967 73.9934 182.965 75.2024H183.431H183.897C183.895 74.211 184.253 73.057 184.846 72.0345C185.434 71.0112 186.255 70.1234 187.115 69.6293L270.857 21.2815C271.357 20.993 271.804 20.8719 272.165 20.8727C272.608 20.8774 272.926 21.0321 273.18 21.3437C273.432 21.6569 273.609 22.1653 273.609 22.8698V209.28C273.611 210.271 273.252 211.426 272.661 212.448C272.072 213.471 271.251 214.359 270.391 214.853L186.649 263.201C186.149 263.489 185.702 263.61 185.341 263.609C184.898 263.605 184.58 263.45 184.326 263.138C184.074 262.825 183.897 262.318 183.897 261.612V75.2024H183.431Z" fill="#D9DAD7"/>
<path d="M188.284 78.6762C188.284 78.1598 188.685 77.5095 189.181 77.2234L198.72 71.7181C199.216 71.432 199.618 71.6185 199.618 72.1341C199.617 72.6505 199.215 73.3008 198.72 73.5869L189.181 79.093C188.685 79.3791 188.284 79.1919 188.284 78.6762Z" fill="#3C515C"/>
<path d="M188.284 82.3884C188.284 81.872 188.685 81.2217 189.181 80.9356L198.72 75.4302C199.216 75.1441 199.618 75.3306 199.618 75.847C199.617 76.3627 199.215 77.013 198.72 77.2991L189.181 82.8052C188.685 83.0905 188.284 82.9048 188.284 82.3884Z" fill="#3C515C"/>
<path d="M188.284 86.1006C188.284 85.5842 188.685 84.9339 189.181 84.6478L198.72 79.1425C199.216 78.8563 199.618 79.0428 199.618 79.5593C199.617 80.0749 199.215 80.7252 198.72 81.0113L189.181 86.5174C188.685 86.8035 188.284 86.6171 188.284 86.1006Z" fill="#3C515C"/>
<path d="M262.559 42.9816C261.355 43.6766 260.38 43.1131 260.38 41.724C260.38 40.3349 261.355 38.6462 262.559 37.952C263.761 37.2571 264.736 37.8206 264.736 39.2088C264.736 40.5979 263.761 42.2867 262.559 42.9816ZM267.599 38.3003V36.8116C267.599 36.7231 267.534 36.6801 267.453 36.7168L266.305 37.234C266.224 37.2707 266.141 37.2308 266.114 37.1455C266.048 36.9352 265.961 36.7455 265.858 36.5765C265.812 36.5008 265.801 36.3781 265.841 36.2984L266.605 34.7563C266.645 34.6766 266.615 34.577 266.538 34.5323L265.708 34.0526C265.631 34.0087 265.528 34.0326 265.479 34.1068L264.525 35.5405C264.477 35.6138 264.365 35.6664 264.277 35.664C264.079 35.6584 263.872 35.6792 263.656 35.727C263.569 35.7461 263.493 35.6935 263.484 35.6058L263.359 34.353C263.349 34.2646 263.28 34.2287 263.202 34.2733L261.913 35.0177C261.836 35.0623 261.768 35.1699 261.76 35.2584L261.631 36.6929C261.623 36.7813 261.562 36.9009 261.497 36.9606C261.245 37.1918 261.006 37.446 260.781 37.7185C260.724 37.7871 260.611 37.8198 260.527 37.7903L259.7 37.5018C259.615 37.4723 259.511 37.5113 259.467 37.5878L258.52 39.2296C258.475 39.3061 258.493 39.4161 258.561 39.4734L259.225 40.0456C259.293 40.1038 259.32 40.2178 259.289 40.3007C259.167 40.633 259.065 40.9677 258.991 41.3C258.972 41.3869 258.899 41.4993 258.826 41.5503L257.648 42.3799C257.576 42.4301 257.517 42.5441 257.517 42.6325V44.1213C257.517 44.2105 257.583 44.2527 257.664 44.2161L258.811 43.6989C258.892 43.6622 258.975 43.7028 259.003 43.7873C259.069 43.9985 259.155 44.1882 259.258 44.3563C259.305 44.4321 259.314 44.5548 259.276 44.6345L258.511 46.1766C258.471 46.2563 258.501 46.3567 258.579 46.4013L259.409 46.8803C259.485 46.9241 259.587 46.901 259.637 46.8269L260.59 45.3932C260.639 45.3191 260.75 45.2673 260.839 45.2697C261.037 45.2744 261.244 45.2537 261.46 45.2067C261.546 45.1876 261.624 45.2394 261.632 45.327L261.758 46.5798C261.767 46.6683 261.836 46.7042 261.913 46.6603L263.202 45.9152C263.28 45.8705 263.348 45.7638 263.356 45.6745L263.485 44.24C263.494 44.1515 263.555 44.032 263.62 43.9722C263.87 43.7419 264.11 43.4869 264.336 43.2143C264.392 43.1458 264.505 43.1131 264.589 43.1426L265.416 43.4319C265.5 43.4606 265.604 43.4223 265.649 43.345L266.597 41.7041C266.641 41.6268 266.622 41.5176 266.555 41.4594L265.891 40.8872C265.824 40.8298 265.796 40.7151 265.826 40.6322C265.95 40.3007 266.051 39.9659 266.125 39.6328C266.145 39.546 266.217 39.4336 266.29 39.3826L267.468 38.5538C267.54 38.5027 267.599 38.3896 267.599 38.3003Z" fill="#2E3E47"/>
<path d="M228.754 75.0398C238.538 69.3902 246.47 73.9703 246.47 85.2678C246.47 96.567 238.538 110.305 228.754 115.955C218.968 121.604 211.036 117.025 211.036 105.726C211.036 94.428 218.968 80.6886 228.754 75.0398Z" fill="#3C515C"/>
<path d="M228.629 83.9313C231.803 82.0983 234.376 83.5847 234.376 87.2498C234.376 90.915 231.803 95.3724 228.629 97.2053C225.454 99.0375 222.881 97.552 222.881 93.8869C222.881 90.2209 225.454 85.7635 228.629 83.9313Z" fill="#215971"/>
<path d="M239.955 103.477C239.955 97.454 235.728 95.0129 230.513 98.0246L227.253 99.907C222.038 102.917 217.81 110.24 217.81 116.262V117.905C218.751 118.218 219.773 118.372 220.854 118.375C223.232 118.38 225.91 117.596 228.753 115.955C233.004 113.501 236.903 109.517 239.955 104.873V103.477Z" fill="#215971"/>
<path d="M212.761 132.765L244.744 114.301C245.697 113.75 246.47 114.141 246.47 115.173C246.47 116.205 245.697 117.489 244.744 118.038L212.761 136.504C211.809 137.054 211.036 136.663 211.036 135.631C211.036 134.598 211.809 133.316 212.761 132.765Z" fill="#215971"/>
<path d="M209.329 145.973L248.177 123.521C249.129 122.97 249.902 123.361 249.902 124.393C249.902 125.425 249.129 126.708 248.177 127.258L209.329 149.711C208.376 150.261 207.604 149.87 207.604 148.838C207.604 147.806 208.376 146.523 209.329 145.973Z" fill="#3C515C"/>
<path d="M249.213 141.62L260.09 135.339C260.662 135.009 261.125 135.159 261.125 135.676C261.125 136.192 260.662 136.878 260.09 137.208L249.213 143.489C248.641 143.819 248.177 143.668 248.177 143.152C248.177 142.636 248.641 141.95 249.213 141.62Z" fill="#2E3E47"/>
<path d="M194.869 169.262L210.841 160.041C211.794 159.49 212.567 159.936 212.567 161.037V172.004C212.567 173.104 211.795 174.443 210.841 174.992L194.869 184.215C193.916 184.765 193.143 184.318 193.143 183.219V172.251C193.143 171.15 193.916 169.812 194.869 169.262Z" fill="#215971"/>
<path d="M197.416 170.795L208.294 164.514C208.866 164.184 209.329 164.335 209.329 164.851C209.329 165.368 208.866 166.054 208.294 166.384L197.416 172.665C196.845 172.994 196.381 172.844 196.381 172.327C196.381 171.812 196.845 171.126 197.416 170.795Z" fill="#FAF9F9"/>
<path d="M196.381 176.327V179.542C196.381 180.202 196.845 180.47 197.416 180.14L208.294 173.859C208.866 173.529 209.329 172.727 209.329 172.066L209.33 168.85C209.33 168.19 208.866 167.922 208.295 168.253L197.416 174.533C196.845 174.863 196.381 175.667 196.381 176.327Z" fill="#FAF9F9"/>
<path d="M220.766 154.31L236.739 145.088C237.692 144.539 238.464 144.984 238.464 146.085V157.052C238.464 158.152 237.692 159.49 236.739 160.041L220.766 169.262C219.813 169.812 219.041 169.367 219.041 168.266V157.299C219.041 156.199 219.813 154.861 220.766 154.31Z" fill="#215971"/>
<path d="M223.314 155.843L234.192 149.563C234.763 149.233 235.227 149.383 235.227 149.899C235.227 150.415 234.763 151.101 234.192 151.432L223.314 157.712C222.742 158.043 222.279 157.891 222.279 157.376C222.279 156.859 222.742 156.174 223.314 155.843Z" fill="#FAF9F9"/>
<path d="M222.279 161.375V164.591C222.279 165.251 222.742 165.518 223.314 165.188L234.192 158.908C234.763 158.578 235.227 157.774 235.227 157.114V153.898C235.228 153.238 234.764 152.97 234.192 153.3L223.314 159.581C222.742 159.912 222.279 160.714 222.279 161.375Z" fill="#FAF9F9"/>
<path d="M246.664 139.358L262.637 130.136C263.59 129.585 264.362 130.032 264.362 131.132V142.099C264.362 143.2 263.591 144.538 262.637 145.088L246.664 154.31C245.712 154.86 244.939 154.414 244.939 153.314V142.346C244.939 141.246 245.712 139.907 246.664 139.358Z" fill="#215971"/>
<path d="M249.212 140.891L260.09 134.609C260.662 134.279 261.125 134.43 261.125 134.946C261.125 135.463 260.662 136.149 260.09 136.479L249.212 142.76C248.641 143.09 248.177 142.939 248.177 142.423C248.177 141.907 248.641 141.221 249.212 140.891Z" fill="#FAF9F9"/>
<path d="M248.177 146.422V149.637C248.177 150.298 248.641 150.566 249.212 150.235L260.09 143.955C260.662 143.624 261.125 142.822 261.125 142.162L261.126 138.946C261.126 138.285 260.662 138.018 260.09 138.348L249.212 144.629C248.641 144.959 248.177 145.762 248.177 146.422Z" fill="#FAF9F9"/>
<path d="M196.594 194.432L260.911 157.299C262.818 156.198 264.363 156.98 264.363 159.045C264.363 161.109 262.818 163.674 260.911 164.775L196.594 201.909C194.689 203.008 193.143 202.227 193.143 200.163C193.143 198.098 194.689 195.532 196.594 194.432Z" fill="#D9DAD7"/>
<path d="M196.594 209.385L260.911 172.251C262.818 171.15 264.363 171.932 264.363 173.996C264.363 176.061 262.818 178.627 260.911 179.727L196.594 216.86C194.689 217.961 193.143 217.179 193.143 215.115C193.143 213.051 194.689 210.485 196.594 209.385Z" fill="#D9DAD7"/>
<path d="M217.53 215.988L239.976 203.028C240.929 202.478 241.702 202.924 241.702 204.025L241.702 211.254C241.702 212.354 240.929 213.692 239.977 214.242L217.53 227.202C216.577 227.752 215.805 227.306 215.805 226.206V218.976C215.805 217.876 216.577 216.538 217.53 215.988Z" fill="#215971"/>
<path d="M197.999 195.531C197.106 196.046 196.381 197.301 196.381 198.334C196.381 199.366 197.106 199.785 197.999 199.269C198.893 198.753 199.618 197.498 199.618 196.465C199.618 195.433 198.893 195.014 197.999 195.531Z" fill="#FAF9F9"/>
<path d="M203.128 192.566C202.233 193.082 201.508 194.337 201.508 195.37C201.508 196.402 202.233 196.82 203.128 196.304C204.021 195.788 204.746 194.533 204.746 193.5C204.746 192.468 204.021 192.05 203.128 192.566Z" fill="#FAF9F9"/>
<path d="M208.255 189.601C207.361 190.117 206.637 191.372 206.637 192.404C206.637 193.437 207.361 193.855 208.255 193.34C209.148 192.823 209.873 191.568 209.873 190.535C209.873 189.503 209.148 189.085 208.255 189.601Z" fill="#FAF9F9"/>
<path d="M213.383 186.636C212.489 187.152 211.763 188.408 211.763 189.44C211.763 190.472 212.489 190.891 213.383 190.375C214.277 189.859 215.001 188.604 215.001 187.572C215.001 186.539 214.277 186.12 213.383 186.636Z" fill="#FAF9F9"/>
<path d="M218.51 183.671C217.616 184.188 216.892 185.443 216.892 186.476C216.892 187.508 217.616 187.926 218.51 187.41C219.404 186.894 220.13 185.639 220.13 184.606C220.13 183.574 219.404 183.155 218.51 183.671Z" fill="#FAF9F9"/>
<path d="M223.639 180.707C222.744 181.223 222.02 182.478 222.02 183.51C222.02 184.543 222.744 184.962 223.639 184.445C224.532 183.929 225.256 182.673 225.256 181.641C225.256 180.609 224.532 180.19 223.639 180.707Z" fill="#FAF9F9"/>
<path d="M228.765 177.742C227.872 178.258 227.148 179.514 227.148 180.546C227.148 181.578 227.872 181.996 228.765 181.48C229.66 180.964 230.385 179.709 230.385 178.677C230.385 177.644 229.66 177.226 228.765 177.742Z" fill="#FAF9F9"/>
<path d="M197.999 210.499C197.106 211.015 196.381 212.271 196.381 213.303C196.381 214.336 197.106 214.754 197.999 214.237C198.893 213.721 199.618 212.466 199.618 211.434C199.618 210.401 198.893 209.983 197.999 210.499Z" fill="#FAF9F9"/>
<path d="M203.128 207.534C202.233 208.05 201.508 209.305 201.508 210.338C201.508 211.37 202.233 211.789 203.128 211.273C204.021 210.756 204.746 209.501 204.746 208.469C204.746 207.436 204.021 207.018 203.128 207.534Z" fill="#FAF9F9"/>
<path d="M208.255 204.57C207.361 205.085 206.637 206.34 206.637 207.373C206.637 208.405 207.361 208.824 208.255 208.308C209.148 207.792 209.873 206.537 209.873 205.504C209.873 204.472 209.148 204.053 208.255 204.57Z" fill="#FAF9F9"/>
<path d="M213.383 201.604C212.489 202.121 211.763 203.376 211.763 204.408C211.763 205.441 212.489 205.859 213.383 205.344C214.277 204.827 215.001 203.572 215.001 202.539C215.001 201.507 214.277 201.089 213.383 201.604Z" fill="#FAF9F9"/>
<path d="M218.51 198.64C217.616 199.156 216.892 200.411 216.892 201.444C216.892 202.476 217.616 202.894 218.51 202.379C219.404 201.862 220.13 200.607 220.13 199.575C220.13 198.542 219.404 198.124 218.51 198.64Z" fill="#FAF9F9"/>
<path d="M223.639 195.675C222.744 196.191 222.02 197.447 222.02 198.479C222.02 199.511 222.744 199.93 223.639 199.413C224.532 198.898 225.256 197.643 225.256 196.61C225.256 195.578 224.532 195.159 223.639 195.675Z" fill="#FAF9F9"/>
<path d="M228.765 192.71C227.872 193.227 227.148 194.482 227.148 195.514C227.148 196.547 227.872 196.965 228.765 196.449C229.66 195.933 230.385 194.678 230.385 193.645C230.385 192.613 229.66 192.194 228.765 192.71Z" fill="#FAF9F9"/>
<path d="M317.155 172.702C315.144 172.702 313.021 173.712 311.714 174.466C302.613 179.721 294.923 193.836 294.923 205.289C294.923 209.924 296.223 213.442 298.401 214.7C300.88 216.13 304.323 214.568 306.156 213.511C315.258 208.256 322.947 194.142 322.947 182.689C322.947 178.054 321.647 174.535 319.47 173.277C318.757 172.867 317.965 172.702 317.155 172.702ZM300.689 226.404C297.894 226.404 295.242 225.714 292.841 224.328C287.098 221.012 283.804 214.073 283.804 205.289C283.804 189.842 293.622 172.072 306.156 164.837C312.904 160.941 319.606 160.518 325.028 163.649C330.773 166.965 334.066 173.905 334.066 182.689C334.066 198.136 324.248 215.905 311.714 223.14C307.954 225.311 304.208 226.404 300.689 226.404Z" fill="#3C515C"/>
<path d="M324.936 185.162C324.936 176.486 319.47 173.277 319.47 173.277C321.647 174.535 322.947 178.054 322.947 182.689C322.947 194.142 315.258 208.256 306.156 213.511C304.323 214.568 300.88 216.13 298.401 214.7C298.401 214.7 303.013 217.562 309.386 214.086C318.614 209.053 324.936 196.615 324.936 185.162Z" fill="#2E3E47"/>
<path d="M316.167 76.7085C316.167 73.5335 313.594 70.9593 310.419 70.9593C307.244 70.9593 304.671 73.5335 304.671 76.7085V76.7237V168.14C304.671 168.99 305.232 169.839 306.354 170.486C308.598 171.783 312.239 171.783 314.484 170.486C315.606 169.839 316.167 168.99 316.167 168.14V76.7237H316.166L316.167 76.7085Z" fill="#2E3E47"/>
<path d="M311.576 97.136C311.576 95.0185 310.089 92.4443 308.256 91.386C307.324 90.8472 306.484 90.8098 305.881 91.1764L305.878 91.1716L291.693 99.3435L291.351 99.5476L291.212 99.6296C290.967 99.793 290.738 99.9811 290.533 100.185C289.675 101.035 289.144 102.22 289.144 103.52C289.144 105.302 290.133 106.854 291.588 107.655C292.258 108.014 293.017 108.218 293.835 108.218C294.645 108.218 295.412 108.014 296.073 107.655C296.164 107.606 296.254 107.548 296.344 107.5L310.618 99.2782L310.616 99.275C311.208 98.9251 311.576 98.1864 311.576 97.136Z" fill="#3C515C"/>
<path d="M311.576 120.029C311.576 117.912 310.089 115.338 308.256 114.278C307.324 113.74 306.484 113.702 305.881 114.07L305.878 114.065L289.254 123.611L288.91 123.815L288.771 123.898C288.526 124.061 288.298 124.249 288.094 124.453C287.235 125.303 286.704 126.488 286.704 127.787C286.704 129.569 287.693 131.121 289.147 131.923C289.817 132.282 290.578 132.486 291.395 132.486C292.204 132.486 292.973 132.282 293.634 131.923C293.724 131.873 293.814 131.817 293.904 131.767L310.618 122.171L310.616 122.167C311.208 121.818 311.576 121.079 311.576 120.029Z" fill="#3C515C"/>
</svg>
