<svg width="30" height="30" viewBox="0 0 30 30" fill="none" xmlns="http://www.w3.org/2000/svg">
<path d="M16.1833 22.2136C16.1014 22.1519 16.012 22.0971 15.9167 22.05C15.8316 21.996 15.7357 21.9545 15.6333 21.9273C15.5341 21.8858 15.4271 21.8581 15.3167 21.8455C14.9974 21.7902 14.6649 21.8189 14.3667 21.9273C14.1598 21.9885 13.972 22.0862 13.8165 22.2135C13.6609 22.3407 13.5415 22.4944 13.4667 22.6636C13.3734 22.8255 13.3277 23.0029 13.3333 23.1818C13.3307 23.3591 13.3703 23.5351 13.45 23.7C13.5466 23.8629 13.67 24.0143 13.8167 24.15C13.9724 24.2764 14.1571 24.3764 14.3602 24.4442C14.5632 24.5121 14.7807 24.5465 15 24.5455C15.2186 24.5501 15.4355 24.5127 15.6333 24.4364C15.8353 24.3673 16.0213 24.2705 16.1833 24.15C16.3378 24.0226 16.46 23.8715 16.543 23.7053C16.6259 23.5392 16.6679 23.3613 16.6667 23.1818C16.664 23.0036 16.6187 22.8276 16.5333 22.6636C16.454 22.4962 16.3351 22.3433 16.1833 22.2136V22.2136ZM9.25 16.5955C9.16491 16.5415 9.06906 16.5 8.96667 16.4727C8.86959 16.4217 8.76246 16.3848 8.65 16.3636C8.43619 16.3229 8.21381 16.3229 8 16.3636L7.7 16.4455L7.4 16.5682L7.15 16.7318C6.83755 17 6.6643 17.3568 6.66667 17.7273C6.6654 17.9067 6.70744 18.0846 6.79038 18.2508C6.87332 18.4169 6.99553 18.568 7.15 18.6955C7.312 18.8159 7.49802 18.9128 7.7 18.9818C7.9525 19.0667 8.22661 19.0995 8.49824 19.0774C8.76988 19.0553 9.03072 18.979 9.25785 18.8551C9.48498 18.7312 9.67144 18.5636 9.80085 18.3669C9.93025 18.1703 9.99864 17.9506 10 17.7273C9.99386 17.3662 9.82122 17.0204 9.51667 16.7591L9.25 16.5955ZM9.51667 22.2136C9.35816 22.0895 9.17125 21.9922 8.96667 21.9273C8.66496 21.8128 8.32831 21.7748 8 21.8182L7.7 21.9C7.59379 21.9298 7.49291 21.9711 7.4 22.0227C7.31269 22.0731 7.2292 22.1277 7.15 22.1864C6.99827 22.3161 6.87932 22.469 6.8 22.6364C6.71182 22.7996 6.66628 22.9761 6.66628 23.1545C6.66628 23.333 6.71182 23.5095 6.8 23.6727C6.8844 23.838 7.00278 23.9902 7.15 24.1227C7.30296 24.254 7.48641 24.3591 7.6896 24.4317C7.89279 24.5042 8.11164 24.5429 8.33333 24.5455C8.55196 24.5501 8.76887 24.5127 8.96667 24.4364C9.16864 24.3673 9.35466 24.2705 9.51667 24.15C9.66388 24.0175 9.78226 23.8653 9.86667 23.7C9.95484 23.5368 10.0004 23.3603 10.0004 23.1818C10.0004 23.0034 9.95484 22.8269 9.86667 22.6636C9.78734 22.4962 9.6684 22.3433 9.51667 22.2136V22.2136ZM14.3667 16.4727C14.1621 16.5376 13.9752 16.6349 13.8167 16.7591C13.5121 17.0204 13.3395 17.3662 13.3333 17.7273C13.3347 17.9506 13.4031 18.1703 13.5325 18.3669C13.6619 18.5636 13.8484 18.7312 14.0755 18.8551C14.3026 18.979 14.5635 19.0553 14.8351 19.0774C15.1067 19.0995 15.3808 19.0667 15.6333 18.9818C15.8353 18.9128 16.0213 18.8159 16.1833 18.6955C16.3378 18.568 16.46 18.4169 16.543 18.2508C16.6259 18.0846 16.6679 17.9067 16.6667 17.7273C16.6605 17.3662 16.4879 17.0204 16.1833 16.7591C15.949 16.5699 15.6513 16.4417 15.328 16.3907C15.0047 16.3398 14.6702 16.3683 14.3667 16.4727V16.4727ZM22.85 22.2136C22.688 22.0932 22.502 21.9963 22.3 21.9273C21.9965 21.8228 21.662 21.7943 21.3386 21.8453C21.0153 21.8962 20.7177 22.0244 20.4833 22.2136C20.3316 22.3433 20.2127 22.4962 20.1333 22.6636C20.0452 22.8269 19.9996 23.0034 19.9996 23.1818C19.9996 23.3603 20.0452 23.5368 20.1333 23.7C20.2177 23.8653 20.3361 24.0175 20.4833 24.15C20.6391 24.2764 20.8238 24.3764 21.0268 24.4442C21.2299 24.5121 21.4473 24.5465 21.6667 24.5455C21.8853 24.5501 22.1022 24.5127 22.3 24.4364C22.502 24.3673 22.688 24.2705 22.85 24.15C23.0813 23.9582 23.2379 23.7147 23.3002 23.4502C23.3625 23.1857 23.3276 22.912 23.2 22.6636C23.1207 22.4962 23.0017 22.3433 22.85 22.2136ZM21.6667 5.45455H8.33333C7.89131 5.45455 7.46738 5.59821 7.15482 5.85395C6.84226 6.10968 6.66667 6.45652 6.66667 6.81818V12.2727C6.66667 12.6344 6.84226 12.9812 7.15482 13.237C7.46738 13.4927 7.89131 13.6364 8.33333 13.6364H21.6667C22.1087 13.6364 22.5326 13.4927 22.8452 13.237C23.1577 12.9812 23.3333 12.6344 23.3333 12.2727V6.81818C23.3333 6.45652 23.1577 6.10968 22.8452 5.85395C22.5326 5.59821 22.1087 5.45455 21.6667 5.45455ZM20 10.9091H10V8.18182H20V10.9091ZM25 0H5C3.67392 0 2.40215 0.431005 1.46447 1.1982C0.526784 1.96539 0 3.00593 0 4.09091V25.9091C0 26.9941 0.526784 28.0346 1.46447 28.8018C2.40215 29.569 3.67392 30 5 30H25C26.3261 30 27.5979 29.569 28.5355 28.8018C29.4732 28.0346 30 26.9941 30 25.9091V4.09091C30 3.00593 29.4732 1.96539 28.5355 1.1982C27.5979 0.431005 26.3261 0 25 0V0ZM26.6667 25.9091C26.6667 26.2707 26.4911 26.6176 26.1785 26.8733C25.866 27.1291 25.442 27.2727 25 27.2727H5C4.55797 27.2727 4.13405 27.1291 3.82149 26.8733C3.50893 26.6176 3.33333 26.2707 3.33333 25.9091V4.09091C3.33333 3.72925 3.50893 3.3824 3.82149 3.12667C4.13405 2.87094 4.55797 2.72727 5 2.72727H25C25.442 2.72727 25.866 2.87094 26.1785 3.12667C26.4911 3.3824 26.6667 3.72925 26.6667 4.09091V25.9091ZM22.5833 16.5955C22.4982 16.5415 22.4024 16.5 22.3 16.4727C22.2008 16.4312 22.0937 16.4036 21.9833 16.3909C21.7695 16.3502 21.5471 16.3502 21.3333 16.3909L21.0333 16.4727L20.7333 16.5955L20.4833 16.7591C20.1788 17.0204 20.0061 17.3662 20 17.7273C20.0014 17.9506 20.0697 18.1703 20.1992 18.3669C20.3286 18.5636 20.515 18.7312 20.7421 18.8551C20.9693 18.979 21.2301 19.0553 21.5018 19.0774C21.7734 19.0995 22.0475 19.0667 22.3 18.9818C22.502 18.9128 22.688 18.8159 22.85 18.6955C23.0045 18.568 23.1267 18.4169 23.2096 18.2508C23.2926 18.0846 23.3346 17.9067 23.3333 17.7273C23.3272 17.3662 23.1546 17.0204 22.85 16.7591L22.5833 16.5955Z" fill="#852B3A"/>
</svg>
