<svg width="30" height="27" viewBox="0 0 30 27" fill="none" xmlns="http://www.w3.org/2000/svg">
<path d="M1.5 3H28.5C28.8978 3 29.2794 2.84196 29.5607 2.56066C29.842 2.27936 30 1.89782 30 1.5C30 1.10218 29.842 0.720644 29.5607 0.43934C29.2794 0.158035 28.8978 0 28.5 0H1.5C1.10218 0 0.720644 0.158035 0.43934 0.43934C0.158035 0.720644 0 1.10218 0 1.5C0 1.89782 0.158035 2.27936 0.43934 2.56066C0.720644 2.84196 1.10218 3 1.5 3V3ZM28.5 24H13.5C13.1022 24 12.7206 24.158 12.4393 24.4393C12.158 24.7206 12 25.1022 12 25.5C12 25.8978 12.158 26.2794 12.4393 26.5607C12.7206 26.842 13.1022 27 13.5 27H28.5C28.8978 27 29.2794 26.842 29.5607 26.5607C29.842 26.2794 30 25.8978 30 25.5C30 25.1022 29.842 24.7206 29.5607 24.4393C29.2794 24.158 28.8978 24 28.5 24ZM28.5 12H1.5C1.10218 12 0.720644 12.158 0.43934 12.4393C0.158035 12.7206 0 13.1022 0 13.5C0 13.8978 0.158035 14.2794 0.43934 14.5607C0.720644 14.842 1.10218 15 1.5 15H28.5C28.8978 15 29.2794 14.842 29.5607 14.5607C29.842 14.2794 30 13.8978 30 13.5C30 13.1022 29.842 12.7206 29.5607 12.4393C29.2794 12.158 28.8978 12 28.5 12ZM28.5 18H1.5C1.10218 18 0.720644 18.158 0.43934 18.4393C0.158035 18.7206 0 19.1022 0 19.5C0 19.8978 0.158035 20.2794 0.43934 20.5607C0.720644 20.842 1.10218 21 1.5 21H28.5C28.8978 21 29.2794 20.842 29.5607 20.5607C29.842 20.2794 30 19.8978 30 19.5C30 19.1022 29.842 18.7206 29.5607 18.4393C29.2794 18.158 28.8978 18 28.5 18ZM28.5 6H1.5C1.10218 6 0.720644 6.15804 0.43934 6.43934C0.158035 6.72064 0 7.10218 0 7.5C0 7.89782 0.158035 8.27936 0.43934 8.56066C0.720644 8.84196 1.10218 9 1.5 9H28.5C28.8978 9 29.2794 8.84196 29.5607 8.56066C29.842 8.27936 30 7.89782 30 7.5C30 7.10218 29.842 6.72064 29.5607 6.43934C29.2794 6.15804 28.8978 6 28.5 6Z" fill="#E0E2DB"/>
</svg>
