<svg width="21" height="18" viewBox="0 0 21 18" fill="none" xmlns="http://www.w3.org/2000/svg">
<path d="M19.17 6.23003L5.17001 0.450029C4.64029 0.230815 4.05884 0.167973 3.49451 0.268942C2.93018 0.36991 2.4066 0.630461 1.98575 1.01975C1.5649 1.40904 1.2644 1.91076 1.11983 2.46552C0.975262 3.02029 0.992675 3.60486 1.17001 4.15003L2.71001 9.00003L1.13001 13.85C0.947881 14.3974 0.927422 14.9856 1.07108 15.5443C1.21475 16.103 1.51644 16.6084 1.94001 17C2.48465 17.5051 3.19729 17.7902 3.94001 17.8C4.33474 17.7998 4.72554 17.7216 5.09001 17.57L19.14 11.79C19.6872 11.5625 20.1547 11.1779 20.4836 10.685C20.8125 10.192 20.988 9.61264 20.988 9.02003C20.988 8.42741 20.8125 7.84807 20.4836 7.3551C20.1547 6.86212 19.6872 6.47759 19.14 6.25003L19.17 6.23003ZM4.36001 15.7C4.18361 15.7728 3.99007 15.7936 3.80225 15.7599C3.61442 15.7262 3.44015 15.6395 3.30001 15.51C3.168 15.3839 3.07304 15.224 3.02545 15.0477C2.97785 14.8714 2.97943 14.6855 3.03001 14.51L4.49001 10H18.22L4.36001 15.7ZM4.49001 8.00003L3.00001 3.53003C2.94943 3.35458 2.94785 3.16863 2.99545 2.99235C3.04304 2.81606 3.138 2.65618 3.27001 2.53003C3.36412 2.43131 3.47742 2.35288 3.60296 2.29957C3.7285 2.24625 3.86362 2.21919 4.00001 2.22003C4.13406 2.22029 4.26669 2.24749 4.39001 2.30003L18.22 8.00003H4.49001Z" fill="#852B3A"/>
</svg>
