<svg width="22" height="30" viewBox="0 0 22 30" fill="none" xmlns="http://www.w3.org/2000/svg">
<path d="M18.2143 0H3.21429C2.3618 0 1.54424 0.338647 0.941443 0.941443C0.338647 1.54424 0 2.3618 0 3.21429V26.7857C0 27.6382 0.338647 28.4558 0.941443 29.0586C1.54424 29.6614 2.3618 30 3.21429 30H18.2143C19.0668 30 19.8843 29.6614 20.4871 29.0586C21.0899 28.4558 21.4286 27.6382 21.4286 26.7857V3.21429C21.4286 2.3618 21.0899 1.54424 20.4871 0.941443C19.8843 0.338647 19.0668 0 18.2143 0ZM19.2857 26.7857C19.2857 27.0699 19.1728 27.3424 18.9719 27.5433C18.771 27.7443 18.4984 27.8571 18.2143 27.8571H3.21429C2.93013 27.8571 2.6576 27.7443 2.45667 27.5433C2.25574 27.3424 2.14286 27.0699 2.14286 26.7857V3.21429C2.14286 2.93013 2.25574 2.6576 2.45667 2.45667C2.6576 2.25574 2.93013 2.14286 3.21429 2.14286H18.2143C18.4984 2.14286 18.771 2.25574 18.9719 2.45667C19.1728 2.6576 19.2857 2.93013 19.2857 3.21429V26.7857Z" fill="#852B3A"/>
<path d="M7.08213 13.8429C7.21426 13.8992 7.35636 13.9283 7.49999 13.9286C7.7103 13.9284 7.91591 13.8664 8.09119 13.7501C8.26648 13.6339 8.40368 13.4687 8.4857 13.275L9.12856 11.7857H12.3428L12.9857 13.275C13.0647 13.4621 13.1953 13.6229 13.3623 13.7386C13.5292 13.8543 13.7256 13.9202 13.9286 13.9286C14.0722 13.9283 14.2143 13.8992 14.3464 13.8429C14.6077 13.7319 14.8143 13.5217 14.9207 13.2586C15.0272 12.9954 15.0249 12.7008 14.9143 12.4393L11.7 4.9393C11.6332 4.73532 11.4996 4.55984 11.3207 4.44124C11.1418 4.32263 10.9282 4.26784 10.7143 4.28573C10.5011 4.2716 10.2891 4.3279 10.111 4.44599C9.93291 4.56407 9.79854 4.7374 9.72856 4.9393L6.51427 12.4393C6.40367 12.7008 6.40135 12.9954 6.50782 13.2586C6.61429 13.5217 6.82084 13.7319 7.08213 13.8429ZM10.0393 9.64287L10.7143 8.07859L11.3893 9.64287H10.0393Z" fill="#852B3A"/>
<path d="M4.28572 21.4286H10.7143C10.9985 21.4286 11.271 21.3157 11.4719 21.1147C11.6728 20.9138 11.7857 20.6413 11.7857 20.3571C11.7857 20.073 11.6728 19.8005 11.4719 19.5995C11.271 19.3986 10.9985 19.2857 10.7143 19.2857H4.28572C4.00156 19.2857 3.72904 19.3986 3.52811 19.5995C3.32718 19.8005 3.21429 20.073 3.21429 20.3571C3.21429 20.6413 3.32718 20.9138 3.52811 21.1147C3.72904 21.3157 4.00156 21.4286 4.28572 21.4286Z" fill="#852B3A"/>
<path d="M16.0714 23.5714H4.28572C4.00156 23.5714 3.72904 23.6843 3.52811 23.8853C3.32718 24.0862 3.21429 24.3587 3.21429 24.6429C3.21429 24.927 3.32718 25.1996 3.52811 25.4005C3.72904 25.6014 4.00156 25.7143 4.28572 25.7143H16.0714C16.3556 25.7143 16.6281 25.6014 16.8291 25.4005C17.03 25.1996 17.1429 24.927 17.1429 24.6429C17.1429 24.3587 17.03 24.0862 16.8291 23.8853C16.6281 23.6843 16.3556 23.5714 16.0714 23.5714Z" fill="#852B3A"/>
</svg>
