<svg width="18" height="18" viewBox="0 0 18 18" fill="none" xmlns="http://www.w3.org/2000/svg">
<path d="M9 12C8.4 12 8 12.4 8 13C8 13.6 8.4 14 9 14C9.6 14 10 13.6 10 13C10 12.4 9.6 12 9 12ZM9 16C8.4 16 8 16.4 8 17C8 17.6 8.4 18 9 18C9.6 18 10 17.6 10 17C10 16.4 9.6 16 9 16ZM9 4C8.4 4 8 4.4 8 5C8 5.6 8.4 6 9 6C9.6 6 10 5.6 10 5C10 4.4 9.6 4 9 4ZM9 0C8.4 0 8 0.4 8 1C8 1.6 8.4 2 9 2C9.6 2 10 1.6 10 1C10 0.4 9.6 0 9 0ZM1 12C0.4 12 0 12.4 0 13C0 13.6 0.4 14 1 14C1.6 14 2 13.6 2 13C2 12.4 1.6 12 1 12ZM1 16C0.4 16 0 16.4 0 17C0 17.6 0.4 18 1 18C1.6 18 2 17.6 2 17C2 16.4 1.6 16 1 16ZM1 4C0.4 4 0 4.4 0 5C0 5.6 0.4 6 1 6C1.6 6 2 5.6 2 5C2 4.4 1.6 4 1 4ZM1 0C0.4 0 0 0.4 0 1C0 1.6 0.4 2 1 2C1.6 2 2 1.6 2 1C2 0.4 1.6 0 1 0ZM5 0C4.4 0 4 0.4 4 1C4 1.6 4.4 2 5 2C5.6 2 6 1.6 6 1C6 0.4 5.6 0 5 0ZM13 0C12.4 0 12 0.4 12 1C12 1.6 12.4 2 13 2C13.6 2 14 1.6 14 1C14 0.4 13.6 0 13 0ZM5 16C4.4 16 4 16.4 4 17C4 17.6 4.4 18 5 18C5.6 18 6 17.6 6 17C6 16.4 5.6 16 5 16ZM13 16C12.4 16 12 16.4 12 17C12 17.6 12.4 18 13 18C13.6 18 14 17.6 14 17C14 16.4 13.6 16 13 16ZM5 8C4.4 8 4 8.4 4 9C4 9.6 4.4 10 5 10C5.6 10 6 9.6 6 9C6 8.4 5.6 8 5 8ZM13 8C12.4 8 12 8.4 12 9C12 9.6 12.4 10 13 10C13.6 10 14 9.6 14 9C14 8.4 13.6 8 13 8ZM17 12C16.4 12 16 12.4 16 13C16 13.6 16.4 14 17 14C17.6 14 18 13.6 18 13C18 12.4 17.6 12 17 12ZM17 16C16.4 16 16 16.4 16 17C16 17.6 16.4 18 17 18C17.6 18 18 17.6 18 17C18 16.4 17.6 16 17 16ZM17 4C16.4 4 16 4.4 16 5C16 5.6 16.4 6 17 6C17.6 6 18 5.6 18 5C18 4.4 17.6 4 17 4ZM9 8C8.4 8 8 8.4 8 9C8 9.6 8.4 10 9 10C9.6 10 10 9.6 10 9C10 8.4 9.6 8 9 8ZM1 8C0.4 8 0 8.4 0 9C0 9.6 0.4 10 1 10C1.6 10 2 9.6 2 9C2 8.4 1.6 8 1 8ZM17 8C16.4 8 16 8.4 16 9C16 9.6 16.4 10 17 10C17.6 10 18 9.6 18 9C18 8.4 17.6 8 17 8ZM17 2C17.6 2 18 1.6 18 1C18 0.4 17.6 0 17 0C16.4 0 16 0.4 16 1C16 1.6 16.4 2 17 2Z" fill="#852B3A"/>
</svg>
