<svg width="31" height="31" viewBox="0 0 31 31" fill="none" xmlns="http://www.w3.org/2000/svg">
<path d="M21.3746 10.3797C21.2368 10.2408 21.0729 10.1306 20.8923 10.0553C20.7118 9.98011 20.5181 9.94138 20.3225 9.94138C20.1269 9.94138 19.9332 9.98011 19.7526 10.0553C19.572 10.1306 19.4082 10.2408 19.2704 10.3797L15.8771 13.7878L12.4838 10.3797C12.2048 10.1007 11.8263 9.94391 11.4317 9.94391C11.0371 9.94391 10.6587 10.1007 10.3797 10.3797C10.1006 10.6587 9.94388 11.0372 9.94388 11.4318C9.94388 11.8264 10.1006 12.2048 10.3797 12.4838L13.7878 15.8771L10.3797 19.2704C10.2408 19.4082 10.1305 19.5721 10.0553 19.7526C9.98008 19.9332 9.94135 20.1269 9.94135 20.3225C9.94135 20.5181 9.98008 20.7118 10.0553 20.8924C10.1305 21.0729 10.2408 21.2368 10.3797 21.3746C10.5174 21.5135 10.6813 21.6237 10.8619 21.6989C11.0424 21.7742 11.2361 21.8129 11.4317 21.8129C11.6273 21.8129 11.821 21.7742 12.0016 21.6989C12.1822 21.6237 12.3461 21.5135 12.4838 21.3746L15.8771 17.9665L19.2704 21.3746C19.4082 21.5135 19.572 21.6237 19.7526 21.6989C19.9332 21.7742 20.1269 21.8129 20.3225 21.8129C20.5181 21.8129 20.7118 21.7742 20.8923 21.6989C21.0729 21.6237 21.2368 21.5135 21.3746 21.3746C21.5134 21.2368 21.6237 21.0729 21.6989 20.8924C21.7741 20.7118 21.8129 20.5181 21.8129 20.3225C21.8129 20.1269 21.7741 19.9332 21.6989 19.7526C21.6237 19.5721 21.5134 19.4082 21.3746 19.2704L17.9664 15.8771L21.3746 12.4838C21.5134 12.3461 21.6237 12.1822 21.6989 12.0016C21.7741 11.8211 21.8129 11.6274 21.8129 11.4318C21.8129 11.2361 21.7741 11.0425 21.6989 10.8619C21.6237 10.6813 21.5134 10.5174 21.3746 10.3797V10.3797ZM26.3534 5.40087C24.9865 3.98561 23.3514 2.85675 21.5435 2.08016C19.7357 1.30356 17.7913 0.894793 15.8238 0.877696C13.8563 0.860599 11.905 1.23552 10.084 1.98057C8.26291 2.72563 6.60847 3.82591 5.21717 5.2172C3.82588 6.6085 2.7256 8.26295 1.98054 10.084C1.23549 11.9051 0.860568 13.8563 0.877665 15.8238C0.894762 17.7913 1.30353 19.7357 2.08012 21.5436C2.85672 23.3514 3.98558 24.9865 5.40084 26.3534C6.76775 27.7687 8.40282 28.8975 10.2107 29.6741C12.0185 30.4507 13.9629 30.8595 15.9304 30.8766C17.8979 30.8937 19.8492 30.5188 21.6702 29.7737C23.4913 29.0286 25.1457 27.9284 26.537 26.5371C27.9283 25.1458 29.0286 23.4913 29.7737 21.6703C30.5187 19.8492 30.8936 17.898 30.8765 15.9305C30.8594 13.9629 30.4507 12.0185 29.6741 10.2107C28.8975 8.40285 27.7686 6.76778 26.3534 5.40087V5.40087ZM24.264 24.2641C22.3259 26.2044 19.775 27.4126 17.0459 27.683C14.3169 27.9534 11.5784 27.2692 9.29724 25.747C7.01605 24.2248 5.33321 21.9587 4.53543 19.3349C3.73766 16.711 3.87431 13.8917 4.92209 11.3574C5.96988 8.82296 7.86398 6.73026 10.2817 5.43578C12.6994 4.14131 15.4912 3.72516 18.1813 4.25822C20.8714 4.79129 23.2935 6.24059 25.0349 8.35921C26.7763 10.4778 27.7293 13.1347 27.7314 15.8771C27.7367 17.4349 27.433 18.9783 26.8378 20.4179C26.2426 21.8575 25.3678 23.1648 24.264 24.2641V24.2641Z" fill="#852B3A"/>
</svg>
