<svg width="27" height="30" viewBox="0 0 27 30" fill="none" xmlns="http://www.w3.org/2000/svg">
<path d="M7.5 9C7.10218 9 6.72064 9.15804 6.43934 9.43934C6.15804 9.72064 6 10.1022 6 10.5C6 10.8978 6.15804 11.2794 6.43934 11.5607C6.72064 11.842 7.10218 12 7.5 12H9C9.39782 12 9.77936 11.842 10.0607 11.5607C10.342 11.2794 10.5 10.8978 10.5 10.5C10.5 10.1022 10.342 9.72064 10.0607 9.43934C9.77936 9.15804 9.39782 9 9 9H7.5ZM15 27H4.5C4.10218 27 3.72064 26.842 3.43934 26.5607C3.15804 26.2794 3 25.8978 3 25.5V4.5C3 4.10218 3.15804 3.72064 3.43934 3.43934C3.72064 3.15804 4.10218 3 4.5 3H12V7.5C12 8.69347 12.4741 9.83807 13.318 10.682C14.1619 11.5259 15.3065 12 16.5 12H21V19.5C21 19.8978 21.158 20.2794 21.4393 20.5607C21.7206 20.842 22.1022 21 22.5 21C22.8978 21 23.2794 20.842 23.5607 20.5607C23.842 20.2794 24 19.8978 24 19.5V10.5C24 10.5 24 10.5 24 10.41C23.9844 10.2722 23.9542 10.1364 23.91 10.005V9.87C23.8379 9.71577 23.7417 9.574 23.625 9.45L14.625 0.45C14.501 0.333324 14.3592 0.237121 14.205 0.165C14.1554 0.156314 14.1046 0.156314 14.055 0.165C13.9091 0.0870046 13.7524 0.031383 13.59 0H4.5C3.30653 0 2.16193 0.474106 1.31802 1.31802C0.474106 2.16193 0 3.30653 0 4.5V25.5C0 26.6935 0.474106 27.8381 1.31802 28.682C2.16193 29.5259 3.30653 30 4.5 30H15C15.3978 30 15.7794 29.842 16.0607 29.5607C16.342 29.2794 16.5 28.8978 16.5 28.5C16.5 28.1022 16.342 27.7206 16.0607 27.4393C15.7794 27.158 15.3978 27 15 27ZM15 5.115L18.885 9H16.5C16.1022 9 15.7206 8.84196 15.4393 8.56066C15.158 8.27936 15 7.89782 15 7.5V5.115ZM25.5 24H19.5C19.1022 24 18.7206 24.158 18.4393 24.4393C18.158 24.7206 18 25.1022 18 25.5C18 25.8978 18.158 26.2794 18.4393 26.5607C18.7206 26.842 19.1022 27 19.5 27H25.5C25.8978 27 26.2794 26.842 26.5607 26.5607C26.842 26.2794 27 25.8978 27 25.5C27 25.1022 26.842 24.7206 26.5607 24.4393C26.2794 24.158 25.8978 24 25.5 24ZM15 21H7.5C7.10218 21 6.72064 21.158 6.43934 21.4393C6.15804 21.7206 6 22.1022 6 22.5C6 22.8978 6.15804 23.2794 6.43934 23.5607C6.72064 23.842 7.10218 24 7.5 24H15C15.3978 24 15.7794 23.842 16.0607 23.5607C16.342 23.2794 16.5 22.8978 16.5 22.5C16.5 22.1022 16.342 21.7206 16.0607 21.4393C15.7794 21.158 15.3978 21 15 21ZM16.5 15H7.5C7.10218 15 6.72064 15.158 6.43934 15.4393C6.15804 15.7206 6 16.1022 6 16.5C6 16.8978 6.15804 17.2794 6.43934 17.5607C6.72064 17.842 7.10218 18 7.5 18H16.5C16.8978 18 17.2794 17.842 17.5607 17.5607C17.842 17.2794 18 16.8978 18 16.5C18 16.1022 17.842 15.7206 17.5607 15.4393C17.2794 15.158 16.8978 15 16.5 15Z" fill="#215971"/>
</svg>
