<svg width="30" height="29" viewBox="0 0 30 29" fill="none" xmlns="http://www.w3.org/2000/svg">
<path d="M15.3989 5.38038L17.4449 7.42629C17.5717 7.55413 17.7225 7.6556 17.8887 7.72485C18.0549 7.79409 18.2332 7.82975 18.4133 7.82975C18.5933 7.82975 18.7716 7.79409 18.9378 7.72485C19.104 7.6556 19.2549 7.55413 19.3817 7.42629C19.5887 7.20902 19.7182 6.92955 19.7503 6.63118C19.7823 6.33281 19.7151 6.0322 19.559 5.77592H24.551C24.9128 5.77592 25.2597 5.63222 25.5155 5.37643C25.7713 5.12064 25.915 4.77371 25.915 4.41197C25.915 4.05023 25.7713 3.70331 25.5155 3.44752C25.2597 3.19173 24.9128 3.04803 24.551 3.04803H19.559C19.7151 2.79175 19.7823 2.49113 19.7503 2.19276C19.7182 1.89439 19.5887 1.61493 19.3817 1.39765C19.2549 1.26981 19.104 1.16834 18.9378 1.0991C18.7716 1.02985 18.5933 0.994202 18.4133 0.994202C18.2332 0.994202 18.0549 1.02985 17.8887 1.0991C17.7225 1.16834 17.5717 1.26981 17.4449 1.39765L15.3989 3.44357C15.2748 3.57329 15.1774 3.72625 15.1125 3.89367C14.9761 4.22574 14.9761 4.59821 15.1125 4.93027C15.1774 5.0977 15.2748 5.25066 15.3989 5.38038ZM29.8977 10.7134C29.8328 10.546 29.7354 10.393 29.6113 10.2633L27.5653 8.21738C27.4385 8.08954 27.2877 7.98807 27.1215 7.91883C26.9553 7.84958 26.777 7.81393 26.5969 7.81393C26.4169 7.81393 26.2386 7.84958 26.0724 7.91883C25.9062 7.98807 25.7553 8.08954 25.6285 8.21738C25.4215 8.43465 25.292 8.71412 25.2599 9.01249C25.2279 9.31086 25.2951 9.61147 25.4512 9.86776H20.4592C20.0974 9.86776 19.7505 10.0115 19.4947 10.2672C19.2389 10.523 19.0952 10.87 19.0952 11.2317C19.0952 11.5934 19.2389 11.9404 19.4947 12.1962C19.7505 12.4519 20.0974 12.5956 20.4592 12.5956H25.4512C25.2951 12.8519 25.2279 13.1525 25.2599 13.4509C25.292 13.7493 25.4215 14.0288 25.6285 14.246C25.7553 14.3739 25.9062 14.4753 26.0724 14.5446C26.2386 14.6138 26.4169 14.6495 26.5969 14.6495C26.777 14.6495 26.9553 14.6138 27.1215 14.5446C27.2877 14.4753 27.4385 14.3739 27.5653 14.246L29.6113 12.2001C29.7354 12.0704 29.8328 11.9174 29.8977 11.75C30.0341 11.4179 30.0341 11.0455 29.8977 10.7134ZM13.6395 11.9137C12.5604 11.9137 11.5056 12.2337 10.6084 12.8331C9.71119 13.4326 9.0119 14.2847 8.59897 15.2816C8.18603 16.2785 8.07799 17.3755 8.2885 18.4338C8.49902 19.4921 9.01863 20.4643 9.78163 21.2273C10.5446 21.9903 11.5168 22.5099 12.5751 22.7204C13.6334 22.9309 14.7304 22.8229 15.7273 22.4099C16.7242 21.997 17.5763 21.2977 18.1758 20.4005C18.7753 19.5033 19.0952 18.4485 19.0952 17.3695C19.0952 15.9225 18.5204 14.5348 17.4973 13.5116C16.4741 12.4885 15.0864 11.9137 13.6395 11.9137V11.9137ZM13.6395 20.0973C13.0999 20.0973 12.5725 19.9374 12.1239 19.6376C11.6753 19.3379 11.3257 18.9118 11.1192 18.4134C10.9127 17.9149 10.8587 17.3664 10.964 16.8373C11.0692 16.3081 11.329 15.822 11.7105 15.4405C12.092 15.059 12.5781 14.7992 13.1073 14.694C13.6364 14.5887 14.1849 14.6427 14.6834 14.8492C15.1818 15.0557 15.6079 15.4053 15.9076 15.8539C16.2074 16.3025 16.3673 16.8299 16.3673 17.3695C16.3673 18.0929 16.0799 18.7868 15.5684 19.2984C15.0568 19.8099 14.3629 20.0973 13.6395 20.0973ZM25.915 16.0055C25.5532 16.0055 25.2063 16.1492 24.9505 16.405C24.6947 16.6608 24.551 17.0077 24.551 17.3695V24.1892C24.551 24.5509 24.4073 24.8979 24.1515 25.1536C23.8957 25.4094 23.5488 25.5531 23.1871 25.5531H4.09184C3.7301 25.5531 3.38317 25.4094 3.12738 25.1536C2.87159 24.8979 2.72789 24.5509 2.72789 24.1892V13.2776C2.72789 12.9159 2.87159 12.569 3.12738 12.3132C3.38317 12.0574 3.7301 11.9137 4.09184 11.9137H6.81973C7.11886 11.9283 7.4145 11.8441 7.66101 11.674C7.90752 11.5039 8.09119 11.2574 8.18367 10.9726L8.9202 8.76296C9.00546 8.50025 9.16847 8.26961 9.38767 8.10156C9.60686 7.93351 9.87191 7.83597 10.1478 7.82184H12.2755C12.6373 7.82184 12.9842 7.67814 13.24 7.42235C13.4958 7.16656 13.6395 6.81963 13.6395 6.45789C13.6395 6.09615 13.4958 5.74923 13.24 5.49344C12.9842 5.23765 12.6373 5.09395 12.2755 5.09395H10.1478C9.28657 5.09364 8.44724 5.36505 7.74929 5.86954C7.05134 6.37402 6.53035 7.08586 6.26051 7.90367L5.83769 9.18578H4.09184C3.00661 9.18578 1.96584 9.61689 1.19847 10.3843C0.431103 11.1516 0 12.1924 0 13.2776V24.1892C0 25.2744 0.431103 26.3152 1.19847 27.0825C1.96584 27.8499 3.00661 28.281 4.09184 28.281H23.1871C24.2723 28.281 25.3131 27.8499 26.0804 27.0825C26.8478 26.3152 27.2789 25.2744 27.2789 24.1892V17.3695C27.2789 17.0077 27.1352 16.6608 26.8794 16.405C26.6236 16.1492 26.2767 16.0055 25.915 16.0055Z" fill="#E0E2DB"/>
</svg>
