<svg width="31" height="30" viewBox="0 0 31 30" fill="none" xmlns="http://www.w3.org/2000/svg">
<path d="M21.3746 9.50255C21.2368 9.36367 21.0729 9.25343 20.8923 9.1782C20.7118 9.10297 20.5181 9.06424 20.3225 9.06424C20.1269 9.06424 19.9332 9.10297 19.7526 9.1782C19.572 9.25343 19.4082 9.36367 19.2704 9.50255L15.8771 12.9107L12.4838 9.50255C12.2048 9.22353 11.8263 9.06677 11.4317 9.06677C11.0371 9.06677 10.6587 9.22353 10.3797 9.50255C10.1006 9.78158 9.94388 10.16 9.94388 10.5546C9.94388 10.9492 10.1006 11.3277 10.3797 11.6067L13.7878 15L10.3797 18.3933C10.2408 18.5311 10.1305 18.6949 10.0553 18.8755C9.98008 19.0561 9.94135 19.2498 9.94135 19.4454C9.94135 19.641 9.98008 19.8347 10.0553 20.0152C10.1305 20.1958 10.2408 20.3597 10.3797 20.4974C10.5174 20.6363 10.6813 20.7466 10.8619 20.8218C11.0424 20.897 11.2361 20.9358 11.4317 20.9358C11.6273 20.9358 11.821 20.897 12.0016 20.8218C12.1822 20.7466 12.3461 20.6363 12.4838 20.4974L15.8771 17.0893L19.2704 20.4974C19.4082 20.6363 19.572 20.7466 19.7526 20.8218C19.9332 20.897 20.1269 20.9358 20.3225 20.9358C20.5181 20.9358 20.7118 20.897 20.8923 20.8218C21.0729 20.7466 21.2368 20.6363 21.3746 20.4974C21.5134 20.3597 21.6237 20.1958 21.6989 20.0152C21.7741 19.8347 21.8129 19.641 21.8129 19.4454C21.8129 19.2498 21.7741 19.0561 21.6989 18.8755C21.6237 18.6949 21.5134 18.5311 21.3746 18.3933L17.9664 15L21.3746 11.6067C21.5134 11.4689 21.6237 11.3051 21.6989 11.1245C21.7741 10.9439 21.8129 10.7502 21.8129 10.5546C21.8129 10.359 21.7741 10.1653 21.6989 9.98476C21.6237 9.80419 21.5134 9.6403 21.3746 9.50255V9.50255ZM26.3534 4.52373C24.9865 3.10847 23.3514 1.97961 21.5435 1.20302C19.7357 0.426427 17.7913 0.0176566 15.8238 0.000559476C13.8563 -0.0165377 11.905 0.358381 10.084 1.10344C8.26291 1.8485 6.60847 2.94877 5.21717 4.34007C3.82588 5.73136 2.7256 7.38581 1.98054 9.20688C1.23549 11.0279 0.860568 12.9792 0.877665 14.9467C0.894762 16.9142 1.30353 18.8586 2.08012 20.6664C2.85672 22.4743 3.98558 24.1094 5.40084 25.4763C6.76775 26.8915 8.40282 28.0204 10.2107 28.797C12.0185 29.5736 13.9629 29.9823 15.9304 29.9994C17.8979 30.0165 19.8492 29.6416 21.6702 28.8966C23.4913 28.1515 25.1457 27.0512 26.537 25.6599C27.9283 24.2686 29.0286 22.6142 29.7737 20.7931C30.5187 18.9721 30.8936 17.0208 30.8765 15.0533C30.8594 13.0858 30.4507 11.1414 29.6741 9.33356C28.8975 7.52572 27.7686 5.89064 26.3534 4.52373V4.52373ZM24.264 23.3869C22.3259 25.3272 19.775 26.5355 17.0459 26.8059C14.3169 27.0763 11.5784 26.3921 9.29724 24.8699C7.01605 23.3477 5.33321 21.0816 4.53543 18.4577C3.73766 15.8339 3.87431 13.0146 4.92209 10.4802C5.96988 7.94582 7.86398 5.85312 10.2817 4.55865C12.6994 3.26418 15.4912 2.84802 18.1813 3.38109C20.8714 3.91415 23.2935 5.36345 25.0349 7.48207C26.7763 9.60069 27.7293 12.2576 27.7314 15C27.7367 16.5578 27.433 18.1012 26.8378 19.5408C26.2426 20.9804 25.3678 22.2877 24.264 23.3869V23.3869Z" fill="#E0E2DB"/>
</svg>
