<svg width="30" height="30" viewBox="0 0 30 30" fill="none" xmlns="http://www.w3.org/2000/svg">
<path d="M29.403 8.35821L21.4925 0.447761C21.194 0.149254 20.8955 0 20.4478 0H9.40299C8.95522 0 8.65672 0.149254 8.35821 0.447761L0.447761 8.35821C0.149254 8.65672 0 8.95522 0 9.40299V20.597C0 21.0448 0.149254 21.3433 0.447761 21.6418L8.35821 29.5522C8.65672 29.7015 8.95522 29.8507 9.40299 29.8507H20.597C21.0448 29.8507 21.3433 29.7015 21.6418 29.403L29.5522 21.4925C29.8507 21.194 30 20.8955 30 20.4478V9.40299C29.8507 8.95522 29.7015 8.65672 29.403 8.35821ZM14.9254 22.3881C14.0299 22.3881 13.4328 21.791 13.4328 20.8955C13.4328 20 14.0299 19.403 14.9254 19.403C15.8209 19.403 16.4179 20 16.4179 20.8955C16.4179 21.791 15.8209 22.3881 14.9254 22.3881ZM16.4179 14.9254C16.4179 15.8209 15.8209 16.4179 14.9254 16.4179C14.0299 16.4179 13.4328 15.8209 13.4328 14.9254V8.95522C13.4328 8.0597 14.0299 7.46269 14.9254 7.46269C15.8209 7.46269 16.4179 8.0597 16.4179 8.95522V14.9254Z" fill="#852B3A"/>
</svg>
