<?xml version="1.0" ?><svg id="Layer_2" style="enable-background:new 0 0 1000 1000;" version="1.1" viewBox="0 0 1000 1000" xml:space="preserve" xmlns="http://www.w3.org/2000/svg" xmlns:xlink="http://www.w3.org/1999/xlink"><g><path d="M483.968,397.833h258.063c2.647,0,4.802-2.154,4.802-4.802v-15.333c0-2.647-2.154-4.802-4.802-4.802   H483.968c-2.647,0-4.802,2.154-4.802,4.802v15.333C479.166,395.679,481.321,397.833,483.968,397.833z" style="fill:#231F20;"/><path d="M462.09,634.27c5.53,5.53,8.561,12.89,8.55,20.72c0,10.66,13.79,20.01,29.5,20.01   c15.721,0,29.5-9.35,29.5-20c-0.01-7.84,3.03-15.2,8.551-20.73c5.5-5.51,12.81-8.54,20.59-8.54h239.84V300c0-16.57-13.43-30-30-30   H231.38c-16.57,0-30,13.43-30,30v325.73H441.5C449.29,625.73,456.6,628.76,462.09,634.27z M759.333,552.608H540.791   c-6.903,0-12.5-5.597-12.5-12.5s5.597-12.5,12.5-12.5h218.542c6.903,0,12.5,5.597,12.5,12.5S766.237,552.608,759.333,552.608z    M759.333,502.608H540.791c-6.903,0-12.5-5.597-12.5-12.5s5.597-12.5,12.5-12.5h218.542c6.903,0,12.5,5.597,12.5,12.5   S766.237,502.608,759.333,502.608z M454.166,377.698c0-16.433,13.369-29.802,29.802-29.802h258.063   c16.433,0,29.802,13.369,29.802,29.802v15.333c0,16.433-13.369,29.802-29.802,29.802H483.968   c-16.433,0-29.802-13.369-29.802-29.802V377.698z M466.666,477.608h20.667c6.903,0,12.5,5.597,12.5,12.5s-5.597,12.5-12.5,12.5   h-20.667c-6.903,0-12.5-5.597-12.5-12.5S459.763,477.608,466.666,477.608z M466.666,527.608h20.667c6.903,0,12.5,5.597,12.5,12.5   s-5.597,12.5-12.5,12.5h-20.667c-6.903,0-12.5-5.597-12.5-12.5S459.763,527.608,466.666,527.608z M392.148,540.108l-0.185-2.333   c-0.71-8.921-5.964-16.849-13.904-20.977l-16.63-8.648c-8.569-4.456-13.952-13.299-13.982-22.954   c9.219-7.172,16.345-19.496,19.57-32.515c0.216,0.037,0.436,0.057,0.657,0.057c3.456,0,6.258-4.651,6.282-8.712   c1.502-1.743,2.475-4.34,2.475-6.73c0-4.074-2.814-7.376-6.284-7.376c-0.62,0-1.219,0.109-1.784,0.306   c-0.001-0.001-0.001-0.002-0.001-0.003h0.008c0,0,3.88-3.27,2.396-16.809c-1.483-13.539-9.375-18.732-9.375-18.732   c3.607-3.338,0-8.531,0-8.531c-1.61,1.443-7.599,1.677-15.002,1.446c1.369-4.601-4.207-7.315-4.207-7.315   c-0.562,1.647-3.977,4-8.71,6.64c-10.344-0.669-20.379-1.443-23.908-0.771c-7.789,1.483-13.353,8.531-17.805,20.401   c-3.316,8.845-1.69,18.922-0.646,23.485c-0.353-0.072-0.715-0.117-1.085-0.117c-3.471,0-6.284,3.302-6.284,7.376   c0,2.391,0.973,4.987,2.475,6.73c0.025,4.061,2.827,8.712,6.282,8.712c0.384,0,0.758-0.066,1.123-0.173   c3.212,13.062,10.354,25.438,19.6,32.631c-0.03,9.654-5.413,18.497-13.983,22.954l-16.631,8.648   c-7.939,4.129-13.194,12.056-13.903,20.977l-0.186,2.333c-17.158-19.977-27.852-48.182-27.852-79.442   C240.667,400.1,280.812,351,330.333,351S420,400.1,420,460.667C420,491.927,409.306,520.132,392.148,540.108z" style="fill:#231F20;"/><path d="M812.613,650.731H558.639c-2.319,0-4.142,1.905-4.139,4.226c0,0.014,0,0.028,0,0.043   c0,24.852-24.4,45-54.5,45c-30.1,0-54.5-20.148-54.5-45c0-0.015,0-0.029,0-0.043c0.003-2.32-1.818-4.226-4.139-4.226H187.388   c-18.451,0-32.528,16.498-29.627,34.719l3.069,19.269c2.32,14.563,14.881,25.281,29.628,25.281h619.085   c14.748,0,27.309-10.719,29.628-25.283l3.067-19.267C845.141,667.229,831.063,650.731,812.613,650.731z M226,702.866h-12.12   c-6.903,0-12.5-5.596-12.5-12.5c0-6.904,5.597-12.5,12.5-12.5H226c6.903,0,12.5,5.596,12.5,12.5   C238.5,697.269,232.904,702.866,226,702.866z M786.12,702.866H774c-6.903,0-12.5-5.596-12.5-12.5c0-6.904,5.597-12.5,12.5-12.5   h12.12c6.903,0,12.5,5.596,12.5,12.5C798.62,697.269,793.024,702.866,786.12,702.866z" style="fill:#231F20;"/></g></svg>