<svg width="17" height="21" viewBox="0 0 17 21" fill="none" xmlns="http://www.w3.org/2000/svg">
<path d="M16.9604 7.68695C16.82 6.22586 16.3036 4.82603 15.4616 3.62377C14.6195 2.4215 13.4805 1.45778 12.1554 0.826443C10.8303 0.195105 9.36425 -0.0823301 7.90008 0.0211529C6.43592 0.124636 5.0235 0.60551 3.80037 1.41695C2.74957 2.11959 1.86742 3.04625 1.21731 4.13034C0.567203 5.21443 0.165264 6.42905 0.0403693 7.68695C-0.0821483 8.93661 0.0750432 10.1979 0.50054 11.3792C0.926036 12.5606 1.60917 13.6324 2.50037 14.5169L7.80037 19.827C7.89333 19.9207 8.00393 19.9951 8.12579 20.0458C8.24765 20.0966 8.37836 20.1227 8.51037 20.1227C8.64238 20.1227 8.77309 20.0966 8.89495 20.0458C9.01681 19.9951 9.12741 19.9207 9.22037 19.827L14.5004 14.5169C15.3916 13.6324 16.0747 12.5606 16.5002 11.3792C16.9257 10.1979 17.0829 8.93661 16.9604 7.68695ZM13.1004 13.1069L8.50037 17.7069L3.90037 13.1069C3.22246 12.429 2.70317 11.6093 2.37984 10.7067C2.0565 9.80414 1.93715 8.84114 2.03037 7.88695C2.12419 6.91805 2.43213 5.98211 2.93194 5.14679C3.43175 4.31147 4.11093 3.59766 4.92037 3.05695C5.98131 2.35219 7.22668 1.97624 8.50037 1.97624C9.77406 1.97624 11.0194 2.35219 12.0804 3.05695C12.8874 3.59557 13.565 4.30623 14.0647 5.13789C14.5644 5.96955 14.8737 6.90155 14.9704 7.86695C15.0666 8.82438 14.9488 9.79123 14.6254 10.6975C14.3019 11.6038 13.781 12.4268 13.1004 13.1069ZM8.50037 4.05695C7.61035 4.05695 6.74032 4.32087 6.0003 4.81534C5.26028 5.3098 4.68351 6.01261 4.34291 6.83487C4.00232 7.65714 3.9132 8.56194 4.08684 9.43486C4.26047 10.3078 4.68905 11.1096 5.31839 11.7389C5.94773 12.3683 6.74955 12.7969 7.62246 12.9705C8.49538 13.1441 9.40018 13.055 10.2224 12.7144C11.0447 12.3738 11.7475 11.797 12.242 11.057C12.7364 10.317 13.0004 9.44697 13.0004 8.55695C12.9977 7.36429 12.5228 6.22123 11.6794 5.37789C10.8361 4.53454 9.69303 4.05959 8.50037 4.05695ZM8.50037 11.0569C8.00592 11.0569 7.52257 10.9103 7.11144 10.6356C6.70032 10.3609 6.37989 9.97047 6.19067 9.51366C6.00145 9.05684 5.95194 8.55418 6.04841 8.06922C6.14487 7.58427 6.38297 7.13881 6.7326 6.78918C7.08223 6.43955 7.52769 6.20145 8.01264 6.10499C8.4976 6.00852 9.00026 6.05803 9.45708 6.24725C9.91389 6.43647 10.3043 6.7569 10.579 7.16802C10.8537 7.57915 11.0004 8.0625 11.0004 8.55695C11.0004 9.21999 10.737 9.85588 10.2681 10.3247C9.7993 10.7936 9.16341 11.0569 8.50037 11.0569Z" fill="#852B3A"/>
</svg>
