<svg width="31" height="38" viewBox="0 0 31 38" fill="none" xmlns="http://www.w3.org/2000/svg">
<path d="M28.7441 32.4941H1.24904C1.036 32.4935 0.826662 32.4384 0.640904 32.3341C0.455145 32.2298 0.299135 32.0797 0.18769 31.8982C0.0762442 31.7166 0.0130633 31.5095 0.00414697 31.2967C-0.00476938 31.0838 0.0408751 30.8722 0.136745 30.682C1.6788 27.5739 2.4869 24.1533 2.49882 20.6838V16.2471C2.49882 12.9325 3.81554 9.75361 6.15933 7.40983C8.50311 5.06605 11.682 3.74932 14.9966 3.74932C18.3112 3.74932 21.49 5.06605 23.8338 7.40983C26.1776 9.75361 27.4943 12.9325 27.4943 16.2471V20.6588C27.5062 24.1284 28.3143 27.5489 29.8564 30.657C29.9582 30.8481 30.0085 31.0624 30.0026 31.2788C29.9966 31.4953 29.9345 31.7065 29.8224 31.8917C29.7102 32.0769 29.5519 32.2298 29.3629 32.3354C29.1738 32.441 28.9606 32.4957 28.7441 32.4941V32.4941ZM3.1862 29.9946H26.8069C25.6151 27.0261 25.0001 23.8576 24.9948 20.6588V16.2471C24.9948 13.5954 23.9414 11.0523 22.0664 9.17728C20.1913 7.30225 17.6483 6.24887 14.9966 6.24887C12.3449 6.24887 9.8018 7.30225 7.92677 9.17728C6.05175 11.0523 4.99837 13.5954 4.99837 16.2471V20.6588C4.99303 23.8576 4.37799 27.0261 3.1862 29.9946V29.9946Z" fill="#DBE3ED"/>
<path d="M14.9966 37.4932C13.3393 37.4932 11.7498 36.8349 10.5779 35.663C9.40604 34.4911 8.74768 32.9017 8.74768 31.2444C8.74768 30.9129 8.87935 30.595 9.11373 30.3606C9.34811 30.1263 9.66599 29.9946 9.99746 29.9946C10.3289 29.9946 10.6468 30.1263 10.8812 30.3606C11.1156 30.595 11.2472 30.9129 11.2472 31.2444C11.2481 32.2384 11.6437 33.1914 12.347 33.8939C13.0623 34.5725 14.0106 34.9509 14.9966 34.9509C15.9825 34.9509 16.9309 34.5725 17.6461 33.8939C17.7626 33.7774 17.9009 33.6849 18.0532 33.6219C18.2054 33.5588 18.3686 33.5263 18.5334 33.5263C18.6982 33.5263 18.8614 33.5588 19.0136 33.6219C19.1659 33.6849 19.3042 33.7774 19.4208 33.8939C19.5373 34.0104 19.6297 34.1488 19.6928 34.301C19.7558 34.4533 19.7883 34.6164 19.7883 34.7812C19.7883 34.946 19.7558 35.1092 19.6928 35.2615C19.6297 35.4137 19.5373 35.5521 19.4208 35.6686C18.8394 36.2485 18.1494 36.7081 17.3903 37.0212C16.6311 37.3343 15.8177 37.4947 14.9966 37.4932Z" fill="#DBE3ED"/>
<path d="M14.9965 6.24887C14.665 6.24887 14.3471 6.1172 14.1128 5.88282C13.8784 5.64845 13.7467 5.33056 13.7467 4.9991V1.24977C13.7467 0.918314 13.8784 0.600429 14.1128 0.366051C14.3471 0.131672 14.665 0 14.9965 0C15.3279 0 15.6458 0.131672 15.8802 0.366051C16.1146 0.600429 16.2463 0.918314 16.2463 1.24977V4.9991C16.2463 5.33056 16.1146 5.64845 15.8802 5.88282C15.6458 6.1172 15.3279 6.24887 14.9965 6.24887Z" fill="#DBE3ED"/>
<path d="M27.4943 4.9991C26.9999 4.9991 26.5167 4.85251 26.1056 4.57785C25.6946 4.3032 25.3742 3.91282 25.185 3.45609C24.9958 2.99935 24.9463 2.49678 25.0428 2.01191C25.1392 1.52705 25.3773 1.08167 25.7269 0.732102C26.0764 0.382534 26.5218 0.144475 27.0067 0.0480293C27.4915 -0.0484164 27.9941 0.00108301 28.4508 0.190268C28.9076 0.379453 29.2979 0.699827 29.5726 1.11088C29.8473 1.52192 29.9939 2.00519 29.9939 2.49955C29.9939 3.16247 29.7305 3.79824 29.2618 4.267C28.793 4.73576 28.1572 4.9991 27.4943 4.9991Z" fill="#DBE3ED"/>
</svg>
