<svg width="31" height="31" viewBox="0 0 31 31" fill="none" xmlns="http://www.w3.org/2000/svg">
<path d="M19.5184 15.9938L30.2596 5.27761C30.7299 4.80724 30.9942 4.16928 30.9942 3.50407C30.9942 2.83887 30.7299 2.20091 30.2596 1.73053C29.7892 1.26016 29.1512 0.995911 28.486 0.995911C27.8208 0.995911 27.1829 1.26016 26.7125 1.73053L15.9963 12.4717L5.28017 1.73053C4.80979 1.26016 4.17183 0.995911 3.50663 0.995911C2.84142 0.995911 2.20346 1.26016 1.73309 1.73053C1.26272 2.20091 0.998465 2.83887 0.998465 3.50407C0.998465 4.16928 1.26272 4.80724 1.73309 5.27761L12.4742 15.9938L1.73309 26.7099C1.49896 26.9422 1.31313 27.2184 1.18631 27.5228C1.05949 27.8272 0.994202 28.1537 0.994202 28.4835C0.994202 28.8132 1.05949 29.1397 1.18631 29.4441C1.31313 29.7485 1.49896 30.0248 1.73309 30.257C1.9653 30.4911 2.24158 30.677 2.54598 30.8038C2.85037 30.9306 3.17687 30.9959 3.50663 30.9959C3.83639 30.9959 4.16288 30.9306 4.46728 30.8038C4.77167 30.677 5.04795 30.4911 5.28017 30.257L15.9963 19.5159L26.7125 30.257C26.9447 30.4911 27.221 30.677 27.5254 30.8038C27.8298 30.9306 28.1563 30.9959 28.486 30.9959C28.8158 30.9959 29.1423 30.9306 29.4467 30.8038C29.7511 30.677 30.0274 30.4911 30.2596 30.257C30.4937 30.0248 30.6795 29.7485 30.8064 29.4441C30.9332 29.1397 30.9985 28.8132 30.9985 28.4835C30.9985 28.1537 30.9332 27.8272 30.8064 27.5228C30.6795 27.2184 30.4937 26.9422 30.2596 26.7099L19.5184 15.9938Z" fill="#852B3A"/>
</svg>
