<svg width="48" height="38" viewBox="0 0 48 38" fill="none" xmlns="http://www.w3.org/2000/svg">
<path d="M44 0.475006H4C1.8 0.475006 0 2.27501 0 4.47501V16.956H12.301L14.989 10.079C15.296 9.29401 16.083 8.78001 16.903 8.80801C17.745 8.83001 18.484 9.37701 18.75 10.176L22.553 21.613L26.657 11.85C26.959 11.133 27.649 10.656 28.427 10.627C29.229 10.593 29.929 11.023 30.282 11.716L32.958 16.957H35.667C36.771 16.957 37.667 17.853 37.667 18.957C37.667 20.061 36.771 20.957 35.667 20.957H31.733C30.981 20.957 30.294 20.536 29.952 19.867L28.677 17.368L24.178 28.068C23.865 28.812 23.137 29.293 22.335 29.293C22.309 29.293 22.283 29.293 22.257 29.291C21.424 29.26 20.699 28.715 20.436 27.924L16.7 16.689L15.53 19.684C15.23 20.451 14.491 20.956 13.667 20.956H0V33.524C0 35.724 1.8 37.524 4 37.524H44C46.2 37.524 48 35.724 48 33.524V4.47401C48 2.27501 46.2 0.475006 44 0.475006Z" fill="#852B3A"/>
</svg>
