<svg width="30" height="22" viewBox="0 0 30 22" fill="none" xmlns="http://www.w3.org/2000/svg">
<path d="M29.3128 0.631425C29.1143 0.431348 28.8783 0.272542 28.6181 0.164169C28.358 0.0557954 28.079 0 27.7972 0C27.5154 0 27.2364 0.0557954 26.9763 0.164169C26.7161 0.272542 26.48 0.431348 26.2816 0.631425L10.3785 16.5559L3.69704 9.85309C3.491 9.65406 3.24778 9.49756 2.98126 9.39253C2.71473 9.2875 2.43013 9.23599 2.14371 9.24094C1.85728 9.2459 1.57463 9.30722 1.3119 9.42141C1.04917 9.5356 0.811509 9.70042 0.612477 9.90646C0.413446 10.1125 0.256947 10.3557 0.151914 10.6222C0.0468809 10.8888 -0.00462908 11.1734 0.000326427 11.4598C0.00528193 11.7462 0.0666056 12.0289 0.180795 12.2916C0.294985 12.5543 0.459804 12.792 0.665844 12.991L8.86288 21.1881C9.06133 21.3881 9.29742 21.5469 9.55755 21.6553C9.81767 21.7637 10.0967 21.8195 10.3785 21.8195C10.6603 21.8195 10.9393 21.7637 11.1994 21.6553C11.4595 21.5469 11.6956 21.3881 11.8941 21.1881L29.3128 3.76935C29.5295 3.56946 29.7024 3.32685 29.8207 3.05682C29.9389 2.78679 30 2.49519 30 2.20039C30 1.90559 29.9389 1.61399 29.8207 1.34396C29.7024 1.07392 29.5295 0.831318 29.3128 0.631425V0.631425Z" fill="#215971"/>
</svg>
